<?xml version="1.0" encoding="UTF-8"?>
<svg version="1.1" xmlns="http://www.w3.org/2000/svg" width="72" height="72">
<path d="M0 0 C23.76 0 47.52 0 72 0 C72 23.76 72 47.52 72 72 C48.24 72 24.48 72 0 72 C0 48.24 0 24.48 0 0 Z " fill="#FEFEFE" transform="translate(0,0)"/>
<path d="M0 0 C6.4900271 4.51769854 11.15889555 10.17530609 13 18 C13.14821925 21.00885076 13.1203728 23.99067989 13 27 C11.68 27 10.36 27 9 27 C8.67 29.64 8.34 32.28 8 35 C7.34 35 6.68 35 6 35 C6.66 36.65 7.32 38.3 8 40 C5.36 40.66 2.72 41.32 0 42 C0.495 44.97 0.495 44.97 1 48 C0.34 48 -0.32 48 -1 48 C-1 46.35 -1 44.7 -1 43 C-2.65 43 -4.3 43 -6 43 C-6 43.66 -6 44.32 -6 45 C-10.95 45 -15.9 45 -21 45 C-21.87890625 38.84765625 -21.87890625 38.84765625 -22 37 C-21 36 -21 36 -17.83984375 35.90234375 C-16.55207031 35.91394531 -15.26429687 35.92554688 -13.9375 35.9375 C-12.64714844 35.94652344 -11.35679688 35.95554688 -10.02734375 35.96484375 C-9.02832031 35.97644531 -8.02929688 35.98804688 -7 36 C-7 32.7 -7 29.4 -7 26 C-11.62 26 -16.24 26 -21 26 C-21 28.97 -21 31.94 -21 35 C-21.99 35 -22.98 35 -24 35 C-24.13277344 35.77085938 -24.26554687 36.54171875 -24.40234375 37.3359375 C-24.66724609 38.84027344 -24.66724609 38.84027344 -24.9375 40.375 C-25.11152344 41.37273438 -25.28554688 42.37046875 -25.46484375 43.3984375 C-26 46 -26 46 -27 48 C-27.66 48 -28.32 48 -29 48 C-29 46.02 -29 44.04 -29 42 C-30.051875 41.9175 -31.10375 41.835 -32.1875 41.75 C-35.16414448 40.91508753 -35.90916816 40.14524101 -37.578125 37.4765625 C-41.25014309 29.09845226 -42.19625023 23.31419917 -39.5 14.5 C-36.59690863 7.15568816 -31.73923072 2.1404886 -24.75 -1.5 C-16.85840275 -4.56668287 -7.38738714 -4.2601131 0 0 Z " fill="#C5CDE8" transform="translate(50,12)"/>
<path d="M0 0 C4.62 0 9.24 0 14 0 C14 3.3 14 6.6 14 10 C9.38 10.33 4.76 10.66 0 11 C0 13.64 0 16.28 0 19 C4.95 19 9.9 19 15 19 C15 18.34 15 17.68 15 17 C16.65 17 18.3 17 20 17 C20 18.65 20 20.3 20 22 C20.66 22 21.32 22 22 22 C21.505 19.03 21.505 19.03 21 16 C24.22791555 13.8480563 25.28400809 13.79913557 29 14 C28.34 13.67 27.68 13.34 27 13 C27 11.68 27 10.36 27 9 C27.66 9 28.32 9 29 9 C29 6.36 29 3.72 29 1 C29.99 0.67 30.98 0.34 32 0 C32.66 0.33 33.32 0.66 34 1 C33.33501617 5.38889325 31.81242323 8.9811485 30 13 C30.804375 12.979375 31.60875 12.95875 32.4375 12.9375 C35 13 35 13 36 14 C36.09823937 15.66429051 36.12973631 17.33281931 36.125 19 C36.12886719 20.36125 36.12886719 20.36125 36.1328125 21.75 C36 24 36 24 35 25 C33.29227578 25.10403846 31.58026194 25.13853224 29.86938477 25.14526367 C28.2274691 25.15483345 28.2274691 25.15483345 26.55238342 25.16459656 C25.36076096 25.16570938 24.16913849 25.1668222 22.94140625 25.16796875 C21.72678207 25.17129715 20.5121579 25.17462555 19.26072693 25.17805481 C16.68578471 25.18312923 14.11083589 25.18546298 11.53588867 25.18530273 C7.58306103 25.18748863 3.63051255 25.20563762 -0.32226562 25.22460938 C-2.81770737 25.22754322 -5.31315045 25.22952808 -7.80859375 25.23046875 C-8.99819199 25.23765427 -10.18779022 25.24483978 -11.41343689 25.25224304 C-12.51119949 25.24916641 -13.6089621 25.24608978 -14.73999023 25.24291992 C-15.7096019 25.24434494 -16.67921356 25.24576996 -17.6782074 25.24723816 C-20 25 -20 25 -22 23 C-22.265625 21.125 -22.265625 21.125 -22.25 19 C-22.25515625 18.29875 -22.2603125 17.5975 -22.265625 16.875 C-22 15 -22 15 -20 13 C-17.72265625 12.953125 -17.72265625 12.953125 -15.0625 13.25 C-14.18722656 13.33765625 -13.31195313 13.4253125 -12.41015625 13.515625 C-10 14 -10 14 -7 16 C-7.33 17.98 -7.66 19.96 -8 22 C-7.34 22 -6.68 22 -6 22 C-5.01 17.71 -4.02 13.42 -3 9 C-2.01 9 -1.02 9 0 9 C0 6.03 0 3.06 0 0 Z " fill="#F3F2F3" transform="translate(29,38)"/>
<path d="M0 0 C1.32 0 2.64 0 4 0 C5.42500059 3.99000166 6.40075776 7.80530429 7 12 C7.78375 12.0825 8.5675 12.165 9.375 12.25 C12 13 12 13 13.1875 15 C13.455625 15.66 13.72375 16.32 14 17 C14.66 17.33 15.32 17.66 16 18 C16 19.98 16 21.96 16 24 C16.639375 24.309375 17.27875 24.61875 17.9375 24.9375 C20 26 20 26 21 27 C21.4664311 32.3639576 21.4664311 32.3639576 19.625 34.875 C18 36 18 36 16 36 C16.495 38.97 16.495 38.97 17 42 C16.34 42 15.68 42 15 42 C15 40.35 15 38.7 15 37 C13.35 37 11.7 37 10 37 C10 37.66 10 38.32 10 39 C5.05 39 0.1 39 -5 39 C-5.87890625 32.84765625 -5.87890625 32.84765625 -6 31 C-5 30 -5 30 -1.83984375 29.90234375 C-0.55207031 29.91394531 0.73570313 29.92554687 2.0625 29.9375 C3.35285156 29.94652344 4.64320312 29.95554687 5.97265625 29.96484375 C6.97167969 29.97644531 7.97070312 29.98804687 9 30 C9 26.7 9 23.4 9 20 C4.38 20 -0.24 20 -5 20 C-5 22.97 -5 25.94 -5 29 C-5.99 29 -6.98 29 -8 29 C-8.13277344 29.77085938 -8.26554687 30.54171875 -8.40234375 31.3359375 C-8.66724609 32.84027344 -8.66724609 32.84027344 -8.9375 34.375 C-9.11152344 35.37273438 -9.28554688 36.37046875 -9.46484375 37.3984375 C-10 40 -10 40 -11 42 C-11.66 42 -12.32 42 -13 42 C-12.9175 41.071875 -12.835 40.14375 -12.75 39.1875 C-12.8325 38.135625 -12.915 37.08375 -13 36 C-14.31337396 34.9739266 -15.64664105 33.97272675 -17 33 C-17.5 30.5625 -17.5 30.5625 -17 28 C-15.125 25.6875 -15.125 25.6875 -13 24 C-12.34 24 -11.68 24 -11 24 C-11.04125 23.21625 -11.0825 22.4325 -11.125 21.625 C-11 19 -11 19 -9 17 C-8.71125 16.01 -8.4225 15.02 -8.125 14 C-7 11 -7 11 -5.0390625 10.1015625 C-2.81569725 9.15727826 -2.81569725 9.15727826 -1.953125 6.8359375 C-1.72109375 6.02382813 -1.4890625 5.21171875 -1.25 4.375 C-1.00765625 3.55773437 -0.7653125 2.74046875 -0.515625 1.8984375 C-0.34546875 1.27195312 -0.1753125 0.64546875 0 0 Z " fill="#E76A83" transform="translate(34,18)"/>
<path d="M0 0 C0.80308594 0.23203125 1.60617188 0.4640625 2.43359375 0.703125 C3.42359375 0.703125 4.41359375 0.703125 5.43359375 0.703125 C4.79020895 2.016827 4.1438116 3.32905398 3.49609375 4.640625 C3.13644531 5.37152344 2.77679687 6.10242188 2.40625 6.85546875 C1.43359375 8.703125 1.43359375 8.703125 0.43359375 9.703125 C0.39295543 11.36929615 0.39087275 13.03700595 0.43359375 14.703125 C1.42359375 15.033125 2.41359375 15.363125 3.43359375 15.703125 C2.96084755 17.3915043 2.48507333 19.07910852 1.9921875 20.76171875 C1.50285906 22.46239171 1.05820872 24.17578935 0.62109375 25.890625 C-0.56640625 28.703125 -0.56640625 28.703125 -3.19140625 30.703125 C-5.93311394 32.53852759 -5.93311394 32.53852759 -5.87890625 35.953125 C-5.77578125 36.860625 -5.67265625 37.768125 -5.56640625 38.703125 C-6.88640625 38.703125 -8.20640625 38.703125 -9.56640625 38.703125 C-13.94927902 29.31125478 -16.16642791 23.33727654 -13.06640625 13.203125 C-10.9680235 7.85635615 -6.65348994 -0.76965789 0 0 Z " fill="#8FA6E4" transform="translate(23.56640625,13.296875)"/>
<path d="M0 0 C3.0572921 0.1951463 5.26911153 0.53710397 7.875 2.1875 C9.55877549 4.90024939 9.39015561 6.87875511 9 10 C7.625 11.875 7.625 11.875 6 13 C5.34 13 4.68 13 4 13 C4.33 14.98 4.66 16.96 5 19 C4.34 19 3.68 19 3 19 C3 17.35 3 15.7 3 14 C1.35 14 -0.3 14 -2 14 C-2 14.66 -2 15.32 -2 16 C-6.95 16 -11.9 16 -17 16 C-17.87890625 9.84765625 -17.87890625 9.84765625 -18 8 C-17 7 -17 7 -13.62109375 6.90234375 C-12.22652923 6.90901631 -10.83198257 6.92097468 -9.4375 6.9375 C-8.72658203 6.94201172 -8.01566406 6.94652344 -7.28320312 6.95117188 C-5.52209987 6.96299136 -3.76103964 6.98092737 -2 7 C-2.04125 6.21625 -2.0825 5.4325 -2.125 4.625 C-2 2 -2 2 0 0 Z " fill="#70548B" transform="translate(46,41)"/>
<path d="M0 0 C2.0625 0.4375 2.0625 0.4375 4 1 C3.33501617 5.38889325 1.81242323 8.9811485 0 13 C0.804375 12.979375 1.60875 12.95875 2.4375 12.9375 C5 13 5 13 6 14 C6.09823937 15.66429051 6.12973631 17.33281931 6.125 19 C6.12886719 20.36125 6.12886719 20.36125 6.1328125 21.75 C6 24 6 24 5 25 C2.7101179 25.09956009 0.41704063 25.1296872 -1.875 25.125 C-3.13054688 25.12757812 -4.38609375 25.13015625 -5.6796875 25.1328125 C-9 25 -9 25 -12 24 C-12 23.34 -12 22.68 -12 22 C-13.32 21.34 -14.64 20.68 -16 20 C-15.505 18.515 -15.505 18.515 -15 17 C-13.35 17 -11.7 17 -10 17 C-10 18.65 -10 20.3 -10 22 C-9.34 22 -8.68 22 -8 22 C-8.33 20.02 -8.66 18.04 -9 16 C-5.77208445 13.8480563 -4.71599191 13.79913557 -1 14 C-1.66 13.67 -2.32 13.34 -3 13 C-3 11.68 -3 10.36 -3 9 C-2.34 9 -1.68 9 -1 9 C-1.020625 7.700625 -1.04125 6.40125 -1.0625 5.0625 C-1.08399454 3.70834367 -1.07148199 2.35243917 -1 1 C-0.67 0.67 -0.34 0.34 0 0 Z " fill="#EBEBEA" transform="translate(59,38)"/>
<path d="M0 0 C0.66 0 1.32 0 2 0 C4.3992233 4.64849515 4.19957409 8.91086074 4 14 C2.68 14 1.36 14 0 14 C-0.33 16.64 -0.66 19.28 -1 22 C-1.66 22 -2.32 22 -3 22 C-2.34 23.65 -1.68 25.3 -1 27 C-2.32 26.67 -3.64 26.34 -5 26 C-4.9175 25.071875 -4.835 24.14375 -4.75 23.1875 C-4.87375 21.6096875 -4.87375 21.6096875 -5 20 C-5.66 19.505 -6.32 19.01 -7 18.5 C-7.66 18.005 -8.32 17.51 -9 17 C-9.25 13.8125 -9.25 13.8125 -9 11 C-9.66 10.67 -10.32 10.34 -11 10 C-10.28972656 9.44570313 -9.57945313 8.89140625 -8.84765625 8.3203125 C-7.92855469 7.59585938 -7.00945313 6.87140625 -6.0625 6.125 C-5.14597656 5.40570312 -4.22945312 4.68640625 -3.28515625 3.9453125 C-0.93990515 2.20579164 -0.93990515 2.20579164 0 0 Z " fill="#9CADDE" transform="translate(59,25)"/>
<path d="M0 0 C11.82071747 -0.86073185 11.82071747 -0.86073185 15.6875 2.3125 C18 5 18 5 19 8 C18.34 8 17.68 8 17 8 C16.7525 8.59296875 16.505 9.1859375 16.25 9.796875 C14.81031137 12.3343262 13.34848507 13.54044102 11 15.25 C10.29875 15.77078125 9.5975 16.2915625 8.875 16.828125 C7 18 7 18 5 18 C4.855625 17.236875 4.71125 16.47375 4.5625 15.6875 C4.0367406 12.91827092 4.0367406 12.91827092 3 10 C5.97 10 8.94 10 12 10 C11.67 9.01 11.34 8.02 11 7 C10.67 7.33 10.34 7.66 10 8 C7.32941149 8.14115161 4.67567762 8.04247107 2 8 C0.74335022 5.09399739 0 3.20395416 0 0 Z " fill="#C9D3F0" transform="translate(42,17)"/>
<path d="M0 0 C1.32 0 2.64 0 4 0 C5.42500059 3.99000166 6.40075776 7.80530429 7 12 C7.78375 12.0825 8.5675 12.165 9.375 12.25 C12 13 12 13 13.1875 15 C13.455625 15.66 13.72375 16.32 14 17 C14.66 17.33 15.32 17.66 16 18 C16 19.65 16 21.3 16 23 C15.34 23 14.68 23 14 23 C12.98648336 21.34151823 11.98879205 19.67334039 11 18 C9.16641665 15.66545339 9.16641665 15.66545339 7 14 C5.68 14 4.36 14 3 14 C2.01 13.67 1.02 13.34 0 13 C-3.11465287 14.55732643 -5.81409615 16.26762019 -8 19 C-8.71447643 21.10332891 -8.71447643 21.10332891 -9 23 C-9.66 23 -10.32 23 -11 23 C-10.34078436 18.64917679 -8.99762711 14.92126804 -7 11 C-6.34128906 10.69707031 -5.68257812 10.39414062 -5.00390625 10.08203125 C-2.81273888 9.15131812 -2.81273888 9.15131812 -1.953125 6.8359375 C-1.72109375 6.02382813 -1.4890625 5.21171875 -1.25 4.375 C-1.00765625 3.55773437 -0.7653125 2.74046875 -0.515625 1.8984375 C-0.34546875 1.27195312 -0.1753125 0.64546875 0 0 Z " fill="#C89A82" transform="translate(34,18)"/>
<path d="M0 0 C0.99 0.66 1.98 1.32 3 2 C6.35919484 2.29954604 9.69537211 2.37825885 13.06640625 2.4609375 C14.03449219 2.63882812 15.00257812 2.81671875 16 3 C17.40234375 5.0390625 17.40234375 5.0390625 18 7 C17.01 6.34 16.02 5.68 15 5 C12.03157342 4.54084493 12.03157342 4.54084493 8.8125 4.375 C7.72582031 4.30023437 6.63914062 4.22546875 5.51953125 4.1484375 C4.68808594 4.09945313 3.85664062 4.05046875 3 4 C3.495 5.1446875 3.495 5.1446875 4 6.3125 C5 9 5 9 5 12 C7.64 12 10.28 12 13 12 C13.33 11.34 13.66 10.68 14 10 C14.33 11.32 14.66 12.64 15 14 C12.03 14 9.06 14 6 14 C7.32 15.65 8.64 17.3 10 19 C9.34 19 8.68 19 8 19 C7.67 19.66 7.34 20.32 7 21 C6.67 20.01 6.34 19.02 6 18 C5.38125 17.9175 4.7625 17.835 4.125 17.75 C2 17 2 17 0.25 13.75 C-0.83892401 10.48322797 -1.30690389 8.3759428 -1 5 C-3.31 4.67 -5.62 4.34 -8 4 C-7.34 3.01 -6.68 2.02 -6 1 C-6 1.66 -6 2.32 -6 3 C-4.02 2.67 -2.04 2.34 0 2 C0 1.34 0 0.68 0 0 Z " fill="#BDBDD4" transform="translate(39,13)"/>
<path d="M0 0 C9.625 0.75 9.625 0.75 13 3 C13.1875 6.625 13.1875 6.625 13 10 C8.71 10 4.42 10 0 10 C0 6.7 0 3.4 0 0 Z " fill="#F0F0F2" transform="translate(9,51)"/>
<path d="M0 0 C1.75 0.9375 1.75 0.9375 3.75 2.9375 C3.75 3.9275 3.75 4.9175 3.75 5.9375 C2.76 5.9375 1.77 5.9375 0.75 5.9375 C0.61722656 6.70835938 0.48445313 7.47921875 0.34765625 8.2734375 C0.17105469 9.27632812 -0.00554688 10.27921875 -0.1875 11.3125 C-0.36152344 12.31023438 -0.53554688 13.30796875 -0.71484375 14.3359375 C-1.25 16.9375 -1.25 16.9375 -2.25 18.9375 C-2.91 18.9375 -3.57 18.9375 -4.25 18.9375 C-4.1675 18.009375 -4.085 17.08125 -4 16.125 C-4.0825 15.073125 -4.165 14.02125 -4.25 12.9375 C-5.56337396 11.9114266 -6.89664105 10.91022675 -8.25 9.9375 C-8.875 7.5625 -8.875 7.5625 -8.25 4.9375 C-3.43588235 -0.09544118 -3.43588235 -0.09544118 0 0 Z " fill="#8C6289" transform="translate(25.25,41.0625)"/>
<path d="M0 0 C1.11375 0.4640625 1.11375 0.4640625 2.25 0.9375 C3.24 0.9375 4.23 0.9375 5.25 0.9375 C4.98445313 1.44539062 4.71890625 1.95328125 4.4453125 2.4765625 C2.35022511 6.55968902 0.57380814 10.5248062 -0.75 14.9375 C-1.08 13.9475 -1.41 12.9575 -1.75 11.9375 C-2.41 11.6075 -3.07 11.2775 -3.75 10.9375 C-3.42 9.6175 -3.09 8.2975 -2.75 6.9375 C-3.08 7.9275 -3.41 8.9175 -3.75 9.9375 C-4.08 10.5975 -4.41 11.2575 -4.75 11.9375 C-7.06 11.9375 -9.37 11.9375 -11.75 11.9375 C-10.30599907 6.64282992 -5.94423541 -0.13509626 0 0 Z " fill="#97ADE7" transform="translate(23.75,13.0625)"/>
<path d="M0 0 C2.625 2 2.625 2 5 5 C4.84058356 7.9739411 4.01386378 10.15152558 3 13 C4.32 13.33 5.64 13.66 7 14 C8.04005702 17.38018531 8.08004482 20.4780279 8 24 C6.68 24 5.36 24 4 24 C0.20071361 15.85867201 -2.99023349 8.97070046 0 0 Z " fill="#C4CBE4" transform="translate(10,28)"/>
<path d="M0 0 C3.10385211 -0.11613204 6.20714662 -0.18722029 9.3125 -0.25 C10.19357422 -0.28351562 11.07464844 -0.31703125 11.98242188 -0.3515625 C18.49812787 -0.45066069 18.49812787 -0.45066069 21.10546875 1.890625 C22 4 22 4 22 6 C21.34 6 20.68 6 20 6 C20.33 7.98 20.66 9.96 21 12 C20.34 12 19.68 12 19 12 C19 10.35 19 8.7 19 7 C17.35 7 15.7 7 14 7 C13.67 7.66 13.34 8.32 13 9 C12.67 8.01 12.34 7.02 12 6 C11.34 5.34 10.68 4.68 10 4 C10 3.34 10 2.68 10 2 C6.7 1.67 3.4 1.34 0 1 C0 0.67 0 0.34 0 0 Z " fill="#795F8E" transform="translate(30,48)"/>
<path d="M0 0 C4.62 0 9.24 0 14 0 C14 3.3 14 6.6 14 10 C10.04 10 6.08 10 2 10 C2 9.67 2 9.34 2 9 C3.98 8.67 5.96 8.34 8 8 C7.01 7.34 6.02 6.68 5 6 C5.33 4.35 5.66 2.7 6 1 C4.02 1 2.04 1 0 1 C0 0.67 0 0.34 0 0 Z " fill="#F7EDF1" transform="translate(29,38)"/>
<path d="M0 0 C1.09570312 0.00902344 2.19140625 0.01804688 3.3203125 0.02734375 C4.16335937 0.03894531 5.00640625 0.05054688 5.875 0.0625 C5.875 2.7025 5.875 5.3425 5.875 8.0625 C4.225 8.0625 2.575 8.0625 0.875 8.0625 C1.865 7.7325 2.855 7.4025 3.875 7.0625 C3.215 5.4125 2.555 3.7625 1.875 2.0625 C1.215 2.0625 0.555 2.0625 -0.125 2.0625 C-0.125 4.0425 -0.125 6.0225 -0.125 8.0625 C-2.765 8.0625 -5.405 8.0625 -8.125 8.0625 C-8.125 5.7525 -8.125 3.4425 -8.125 1.0625 C-5.36047967 -0.31976016 -3.0788637 -0.03275387 0 0 Z " fill="#FCFAF7" transform="translate(58.125,52.9375)"/>
<path d="M0 0 C0 1.32 0 2.64 0 4 C1.98 4 3.96 4 6 4 C6 4.33 6 4.66 6 5 C4.02 5 2.04 5 0 5 C-0.33 7.31 -0.66 9.62 -1 12 C-4 12 -4 12 -6 11 C-6 9.02 -6 7.04 -6 5 C-6.66 4.67 -7.32 4.34 -8 4 C-3.375 0 -3.375 0 0 0 Z " fill="#8FA3DC" transform="translate(56,31)"/>
<path d="M0 0 C1.22847656 0.0103125 2.45695312 0.020625 3.72265625 0.03125 C4.94855469 0.0209375 6.17445312 0.010625 7.4375 0 C10.78515625 0.53125 10.78515625 0.53125 14.78515625 4.53125 C7.85515625 4.53125 0.92515625 4.53125 -6.21484375 4.53125 C-3.21484375 0.53125 -3.21484375 0.53125 0 0 Z " fill="#FCF9FD" transform="translate(32.21484375,56.46875)"/>
<path d="M0 0 C1.98 0.99 1.98 0.99 4 2 C3.67 2.66 3.34 3.32 3 4 C4.6396875 4.0928125 4.6396875 4.0928125 6.3125 4.1875 C10 5 10 5 11.8125 7.5 C12.204375 8.325 12.59625 9.15 13 10 C13.66 10.33 14.32 10.66 15 11 C15 12.65 15 14.3 15 16 C14.34 16 13.68 16 13 16 C11.98648336 14.34151823 10.98879205 12.67334039 10 11 C8.16641665 8.66545339 8.16641665 8.66545339 6 7 C4.68 7 3.36 7 2 7 C1.34 7 0.68 7 0 7 C0 4.69 0 2.38 0 0 Z " fill="#E2A975" transform="translate(35,25)"/>
<path d="M0 0 C2.64 0.33 5.28 0.66 8 1 C8.25 3.8125 8.25 3.8125 8 7 C6 8.875 6 8.875 4 10 C3.34 9.01 2.68 8.02 2 7 C1.01 6.67 0.02 6.34 -1 6 C-0.67 4.02 -0.34 2.04 0 0 Z " fill="#9FB1E3" transform="translate(14,35)"/>
<path d="M0 0 C1.32 1.32 2.64 2.64 4 4 C-0.29 4 -4.58 4 -9 4 C-9.66 2.35 -10.32 0.7 -11 -1 C-6.69680634 -2.26564519 -4.08259064 -1.82413624 0 0 Z " fill="#C9D1EA" transform="translate(50,12)"/>
<path d="M0 0 C0 3.59857954 -0.95830515 5.09451118 -3 8 C-3.66 8 -4.32 8 -5 8 C-5 9.98 -5 11.96 -5 14 C-6.32 13.01 -7.64 12.02 -9 11 C-8.58565093 6.16592748 -6.62206046 4.10462326 -3 1 C-2.01 0.67 -1.02 0.34 0 0 Z " fill="#E47581" transform="translate(34,30)"/>
<path d="M0 0 C2.0625 0.4375 2.0625 0.4375 4 1 C3.39288519 5.12838068 2.12477683 8.40422382 0 12 C-0.99 12.33 -1.98 12.66 -3 13 C-3 11.68 -3 10.36 -3 9 C-2.34 9 -1.68 9 -1 9 C-1.020625 7.700625 -1.04125 6.40125 -1.0625 5.0625 C-1.08399454 3.70834367 -1.07148199 2.35243917 -1 1 C-0.67 0.67 -0.34 0.34 0 0 Z " fill="#C8CEE4" transform="translate(59,38)"/>
<path d="M0 0 C0.99 0.66 1.98 1.32 3 2 C6.35919484 2.29954604 9.69537211 2.37825885 13.06640625 2.4609375 C14.03449219 2.63882812 15.00257812 2.81671875 16 3 C17.40234375 5.0390625 17.40234375 5.0390625 18 7 C17.01 6.34 16.02 5.68 15 5 C12.03157342 4.54084493 12.03157342 4.54084493 8.8125 4.375 C7.72582031 4.30023437 6.63914062 4.22546875 5.51953125 4.1484375 C4.68808594 4.09945313 3.85664062 4.05046875 3 4 C2.67 4.99 2.34 5.98 2 7 C1.67 6.34 1.34 5.68 1 5 C-1.12576782 4.53348793 -1.12576782 4.53348793 -3.5625 4.375 C-4.38878906 4.30023437 -5.21507812 4.22546875 -6.06640625 4.1484375 C-6.70449219 4.09945313 -7.34257812 4.05046875 -8 4 C-7.34 3.01 -6.68 2.02 -6 1 C-6 1.66 -6 2.32 -6 3 C-4.02 2.67 -2.04 2.34 0 2 C0 1.34 0 0.68 0 0 Z " fill="#B6BED7" transform="translate(39,13)"/>
<path d="M0 0 C0.33 0.66 0.66 1.32 1 2 C2.0725 1.835 3.145 1.67 4.25 1.5 C8 1 8 1 12 1 C12.33 2.32 12.66 3.64 13 5 C8.71 5 4.42 5 0 5 C0 3.35 0 1.7 0 0 Z " fill="#FCFDFD" transform="translate(9,56)"/>
<path d="M0 0 C1.1446875 0.2475 1.1446875 0.2475 2.3125 0.5 C5.03596236 1.09145396 5.03596236 1.09145396 8 1 C7.73445313 1.50789062 7.46890625 2.01578125 7.1953125 2.5390625 C5.10022511 6.62218902 3.32380814 10.5873062 2 15 C1.67 14.01 1.34 13.02 1 12 C0.34 11.67 -0.32 11.34 -1 11 C-0.34 9.68 0.32 8.36 1 7 C1.66 7 2.32 7 3 7 C3.33 6.01 3.66 5.02 4 4 C2.68 3.34 1.36 2.68 0 2 C0 1.34 0 0.68 0 0 Z " fill="#9EB1E7" transform="translate(21,13)"/>
<path d="M0 0 C2 2 2 2 2 7 C5.96 7 9.92 7 14 7 C14 7.66 14 8.32 14 9 C9.38 9 4.76 9 0 9 C-0.87890625 2.84765625 -0.87890625 2.84765625 -1 1 C-0.67 0.67 -0.34 0.34 0 0 Z " fill="#6A587E" transform="translate(29,48)"/>
<path d="M0 0 C1.67542976 0.28604898 3.34385343 0.61781233 5 1 C4.67 3.31 4.34 5.62 4 8 C0.125 7.125 0.125 7.125 -1 6 C-1.125 3.5 -1.125 3.5 -1 1 C-0.67 0.67 -0.34 0.34 0 0 Z " fill="#6D568B" transform="translate(18,45)"/>
<path d="M0 0 C0.99 0 1.98 0 3 0 C2.67 3.3 2.34 6.6 2 10 C1.01 10 0.02 10 -1 10 C-1 10.99 -1 11.98 -1 13 C-1.66 13 -2.32 13 -3 13 C-2.01 8.71 -1.02 4.42 0 0 Z " fill="#F7ECF5" transform="translate(26,47)"/>
<path d="M0 0 C0.66 2.64 1.32 5.28 2 8 C0.02 8 -1.96 8 -4 8 C-4 6.68 -4 5.36 -4 4 C-4.66 3.67 -5.32 3.34 -6 3 C-2.25 0 -2.25 0 0 0 Z " fill="#96ADED" transform="translate(60,27)"/>
<path d="M0 0 C0.33 0.66 0.66 1.32 1 2 C2.98 2 4.96 2 7 2 C6.67 4.64 6.34 7.28 6 10 C5.34 10 4.68 10 4 10 C1.46093936 7.38626111 0.07743148 5.87110419 -0.25 2.1875 C-0.1675 1.465625 -0.085 0.74375 0 0 Z " fill="#97ACEA" transform="translate(11,25)"/>
<path d="M0 0 C0.33 0 0.66 0 1 0 C1.125 2.375 1.125 2.375 1 5 C0.34 5.66 -0.32 6.32 -1 7 C-0.01 7.66 0.98 8.32 2 9 C1 10 1 10 -1.28515625 10.09765625 C-2.65994141 10.08025391 -2.65994141 10.08025391 -4.0625 10.0625 C-4.98160156 10.05347656 -5.90070312 10.04445313 -6.84765625 10.03515625 C-7.55792969 10.02355469 -8.26820312 10.01195312 -9 10 C-7.6875 8.5 -7.6875 8.5 -6 7 C-5.01 7 -4.02 7 -3 7 C-3 6.01 -3 5.02 -3 4 C-2.01 4 -1.02 4 0 4 C0 2.68 0 1.36 0 0 Z " fill="#E2E0E3" transform="translate(28,53)"/>
<path d="M0 0 C0.99 0 1.98 0 3 0 C2.125 6.875 2.125 6.875 1 8 C-0.66617115 8.04063832 -2.33388095 8.042721 -4 8 C-2.66666667 5.33333333 -1.33333333 2.66666667 0 0 Z " fill="#C7D3F4" transform="translate(27,17)"/>
<path d="M0 0 C0.99 0 1.98 0 3 0 C2.67 1.65 2.34 3.3 2 5 C2.639375 5.103125 3.27875 5.20625 3.9375 5.3125 C4.618125 5.539375 5.29875 5.76625 6 6 C6.33 6.99 6.66 7.98 7 9 C5.02 9 3.04 9 1 9 C0.67 6.03 0.34 3.06 0 0 Z " fill="#C9D4F6" transform="translate(11,36)"/>
<path d="M0 0 C2.97 0 5.94 0 9 0 C8.67 1.32 8.34 2.64 8 4 C5.69 4 3.38 4 1 4 C0.67 2.68 0.34 1.36 0 0 Z " fill="#C2C3E0" transform="translate(23,25)"/>
<path d="M0 0 C0 0.66 0 1.32 0 2 C-1.65071396 3.02611949 -3.31970006 4.02308143 -5 5 C-7.59070637 7.12808023 -8.43056986 8.69730521 -9 12 C-9.66 12 -10.32 12 -11 12 C-10.46845241 7.48184545 -8.82159609 4.54714937 -6 1 C-3.77862246 0.08531513 -2.37601523 0 0 0 Z " fill="#E7AB76" transform="translate(34,29)"/>
<path d="M0 0 C1.65 0 3.3 0 5 0 C5.33 1.32 5.66 2.64 6 4 C5.01 4.66 4.02 5.32 3 6 C2.27034634 8.56282742 2.27034634 8.56282742 2 11 C1.67 11 1.34 11 1 11 C0.67 7.37 0.34 3.74 0 0 Z " fill="#DE8198" transform="translate(42,37)"/>
<path d="M0 0 C1.65 0.33 3.3 0.66 5 1 C5.33 2.32 5.66 3.64 6 5 C3.69 5 1.38 5 -1 5 C-0.67 3.35 -0.34 1.7 0 0 Z " fill="#FA6996" transform="translate(34,32)"/>
<path d="M0 0 C0.33 0.99 0.66 1.98 1 3 C3.64 2.34 6.28 1.68 9 1 C8.01 3.97 7.02 6.94 6 10 C5.67 10 5.34 10 5 10 C5 8.02 5 6.04 5 4 C3.68 4 2.36 4 1 4 C0.67 5.32 0.34 6.64 0 8 C0 6.68 0 5.36 0 4 C-0.66 3.67 -1.32 3.34 -2 3 C-1.34 3 -0.68 3 0 3 C0 2.01 0 1.02 0 0 Z " fill="#9198BD" transform="translate(17,32)"/>
<path d="M0 0 C1.32 0.33 2.64 0.66 4 1 C4.66 3.31 5.32 5.62 6 8 C4.68 7.67 3.36 7.34 2 7 C1.34 4.69 0.68 2.38 0 0 Z " fill="#CCD2E6" transform="translate(37,17)"/>
<path d="M0 0 C1.20462891 -0.02126953 1.20462891 -0.02126953 2.43359375 -0.04296875 C4.5625 0.1875 4.5625 0.1875 6.5625 2.1875 C4.5825 2.8475 2.6025 3.5075 0.5625 4.1875 C0.5625 3.5275 0.5625 2.8675 0.5625 2.1875 C-0.05625 2.39375 -0.675 2.6 -1.3125 2.8125 C-2.01375 2.93625 -2.715 3.06 -3.4375 3.1875 C-4.0975 2.5275 -4.7575 1.8675 -5.4375 1.1875 C-3.84855928 -0.40144072 -2.18948576 0.01751589 0 0 Z " fill="#B8BED1" transform="translate(37.4375,8.8125)"/>
<path d="M0 0 C1.65 0 3.3 0 5 0 C5 1.65 5 3.3 5 5 C2.5625 4.625 2.5625 4.625 0 4 C-0.33 3.34 -0.66 2.68 -1 2 C-0.67 1.34 -0.34 0.68 0 0 Z " fill="#E6DBE4" transform="translate(44,55)"/>
<path d="M0 0 C2.0625 0.4375 2.0625 0.4375 4 1 C3 4 3 4 1 7 C0.34 7 -0.32 7 -1 7 C-1.04254356 5.00045254 -1.04080783 2.99958364 -1 1 C-0.67 0.67 -0.34 0.34 0 0 Z " fill="#CDD4F4" transform="translate(59,38)"/>
<path d="M0 0 C0.99 0.33 1.98 0.66 3 1 C3.33 2.65 3.66 4.3 4 6 C1.525 5.01 1.525 5.01 -1 4 C-0.67 2.68 -0.34 1.36 0 0 Z " fill="#CEBCA4" transform="translate(58,54)"/>
<path d="M0 0 C1.65 0.33 3.3 0.66 5 1 C4.01 2.32 3.02 3.64 2 5 C1.01 4.67 0.02 4.34 -1 4 C-0.67 2.68 -0.34 1.36 0 0 Z " fill="#BDCCEA" transform="translate(54,25)"/>
<path d="M0 0 C1.98 0.66 3.96 1.32 6 2 C5.34 3.32 4.68 4.64 4 6 C3.34 5.67 2.68 5.34 2 5 C2.33 4.34 2.66 3.68 3 3 C1.02 3.33 -0.96 3.66 -3 4 C-2.01 2.68 -1.02 1.36 0 0 Z " fill="#899BD4" transform="translate(20,14)"/>
<path d="M0 0 C1.98 0.99 1.98 0.99 4 2 C3.34 3.65 2.68 5.3 2 7 C1.34 7 0.68 7 0 7 C0 4.69 0 2.38 0 0 Z " fill="#EE9EAA" transform="translate(35,25)"/>
<path d="M0 0 C0.66 0.33 1.32 0.66 2 1 C1.34 2.32 0.68 3.64 0 5 C-1.65 5 -3.3 5 -5 5 C-3.35 3.35 -1.7 1.7 0 0 Z " fill="#CBD5F2" transform="translate(32,11)"/>
</svg>
