<?xml version="1.0" encoding="UTF-8"?>
<svg version="1.1" xmlns="http://www.w3.org/2000/svg" width="72" height="72">
<path d="M0 0 C23.76 0 47.52 0 72 0 C72 23.76 72 47.52 72 72 C48.24 72 24.48 72 0 72 C0 48.24 0 24.48 0 0 Z " fill="#FDFEFD" transform="translate(0,0)"/>
<path d="M0 0 C2.97 0 5.94 0 9 0 C8.835 1.464375 8.67 2.92875 8.5 4.4375 C8.06247693 8.66289401 7.96454571 12.75135096 8.16015625 16.9921875 C8 19 8 19 7.0625 20.83984375 C5.63648529 23.73905749 5.3631708 26.49318045 4.9375 29.6875 C4.10154242 35.89845758 4.10154242 35.89845758 3 37 C-2.74225992 37.30222421 -7.54522138 36.88095814 -13 35 C-15.27910405 32.15111994 -15 30.77876009 -15 27 C-16.32 26.34 -17.64 25.68 -19 25 C-19.66 25.99 -20.32 26.98 -21 28 C-21.99 27.67 -22.98 27.34 -24 27 C-23.34 26.67 -22.68 26.34 -22 26 C-22 22.37 -22 18.74 -22 15 C-22.99 15 -23.98 15 -25 15 C-25 14.34 -25 13.68 -25 13 C-24.34 13 -23.68 13 -23 13 C-22.67 12.34 -22.34 11.68 -22 11 C-20.35 11 -18.7 11 -17 11 C-18.485 13.475 -18.485 13.475 -20 16 C-18.02 15.67 -16.04 15.34 -14 15 C-14.33 13.35 -14.66 11.7 -15 10 C-13.35 9.67 -11.7 9.34 -10 9 C-10.99 9.495 -10.99 9.495 -12 10 C-11.40716379 13.39192363 -10.23256811 15.2107757 -7.9375 17.75 C-7.38964844 18.36359375 -6.84179688 18.9771875 -6.27734375 19.609375 C-5.85582031 20.06828125 -5.43429688 20.5271875 -5 21 C-8 21 -8 21 -11 20 C-11.66 23.63 -12.32 27.26 -13 31 C-9.7 31.99 -6.4 32.98 -3 34 C-2.95101562 32.80246094 -2.90203125 31.60492188 -2.8515625 30.37109375 C-2.39494577 20.14308983 -1.5584023 10.12204989 0 0 Z " fill="#4A566E" transform="translate(45,21)"/>
<path d="M0 0 C1.65 0 3.3 0 5 0 C3.68 12.21 2.36 24.42 1 37 C-6 36 -6 36 -9 34 C-8.67 30.37 -8.34 26.74 -8 23 C-4 23 -4 23 -2 24 C-2.5053125 23.45730469 -3.010625 22.91460937 -3.53125 22.35546875 C-4.1809375 21.64003906 -4.830625 20.92460938 -5.5 20.1875 C-6.1496875 19.47980469 -6.799375 18.77210937 -7.46875 18.04296875 C-9 16 -9 16 -9 13 C-9.33 14.65 -9.66 16.3 -10 18 C-11.98 18.33 -13.96 18.66 -16 19 C-15.67 17.68 -15.34 16.36 -15 15 C-16.32 14.67 -17.64 14.34 -19 14 C-17.86511322 9.1767312 -15.10231358 7.04403984 -11.23828125 4.2890625 C-7.90598547 2.36993927 -4.7629248 1.72617847 -1 1 C-0.67 0.67 -0.34 0.34 0 0 Z " fill="#B3BDD7" transform="translate(41,18)"/>
<path d="M0 0 C0.99 0.33 1.98 0.66 3 1 C2.34 1 1.68 1 1 1 C1.59283621 4.39192363 2.76743189 6.2107757 5.0625 8.75 C5.61035156 9.36359375 6.15820312 9.9771875 6.72265625 10.609375 C7.35494141 11.29773438 7.35494141 11.29773438 8 12 C5 12 5 12 2 11 C1.67 14.63 1.34 18.26 1 22 C0.01 22 -0.98 22 -2 22 C-2 20.68 -2 19.36 -2 18 C-3.32 17.34 -4.64 16.68 -6 16 C-6.66 16.99 -7.32 17.98 -8 19 C-8.99 18.67 -9.98 18.34 -11 18 C-10.34 17.67 -9.68 17.34 -9 17 C-9 13.37 -9 9.74 -9 6 C-9.99 6 -10.98 6 -12 6 C-12 5.34 -12 4.68 -12 4 C-11.34 4 -10.68 4 -10 4 C-9.67 3.34 -9.34 2.68 -9 2 C-7.35 2 -5.7 2 -4 2 C-5.485 4.475 -5.485 4.475 -7 7 C-5.02 6.67 -3.04 6.34 -1 6 C-1.33 4.35 -1.66 2.7 -2 1 C-1.34 0.67 -0.68 0.34 0 0 Z " fill="#58778E" transform="translate(32,30)"/>
<path d="M0 0 C-0.66 0.66 -1.32 1.32 -2 2 C-2.67292501 3.96690374 -2.67292501 3.96690374 -3.125 6.125 C-3.41375 7.40375 -3.7025 8.6825 -4 10 C-5.65 10.33 -7.3 10.66 -9 11 C-9 12.32 -9 13.64 -9 15 C-10.98 15.33 -12.96 15.66 -15 16 C-14.67 14.68 -14.34 13.36 -14 12 C-15.32 11.67 -16.64 11.34 -18 11 C-16.8533265 6.12663764 -14.01401553 3.99764007 -10.1015625 1.23046875 C-6.71709179 -0.75114514 -3.61070115 -1.80535058 0 0 Z " fill="#3ED6C1" transform="translate(40,21)"/>
<path d="M0 0 C1.65 0 3.3 0 5 0 C4.9278125 0.61746094 4.855625 1.23492188 4.78125 1.87109375 C4.22345477 6.96097519 3.92409019 11.87427542 4.16015625 16.9921875 C4 19 4 19 3.06640625 20.8359375 C1.62961322 23.75162739 1.32450297 26.53926447 0.875 29.75 C0.70742188 30.92046875 0.53984375 32.0909375 0.3671875 33.296875 C0.24601562 34.18890625 0.12484375 35.0809375 0 36 C-1.485 36.495 -1.485 36.495 -3 37 C-2.67 34.36 -2.34 31.72 -2 29 C-2.33 29 -2.66 29 -3 29 C-2.54201878 24.26752736 -1.97450969 19.70330224 -0.9375 15.0625 C0.13417882 10.00576365 0.19722495 5.14976252 0 0 Z " fill="#71A4B9" transform="translate(49,21)"/>
<path d="M0 0 C3.875 1.875 3.875 1.875 5 3 C5.27314815 8.73611111 5.27314815 8.73611111 5 11 C4.34 11.66 3.68 12.32 3 13 C0.375 12.625 0.375 12.625 -2 12 C-1.85962479 10.18706911 -1.71255111 8.3746557 -1.5625 6.5625 C-1.48128906 5.55316406 -1.40007813 4.54382812 -1.31640625 3.50390625 C-1 1 -1 1 0 0 Z " fill="#F4F9FC" transform="translate(34,40)"/>
<path d="M0 0 C0.99 0.33 1.98 0.66 3 1 C2.34 1 1.68 1 1 1 C1.59283621 4.39192363 2.76743189 6.2107757 5.0625 8.75 C5.61035156 9.36359375 6.15820312 9.9771875 6.72265625 10.609375 C7.14417969 11.06828125 7.56570312 11.5271875 8 12 C5 12 5 12 2 11 C-0.30336625 11.31052686 -0.30336625 11.31052686 -2.6875 11.9375 C-3.89986328 12.22947266 -3.89986328 12.22947266 -5.13671875 12.52734375 C-5.75160156 12.68332031 -6.36648437 12.83929688 -7 13 C-7.33 12.34 -7.66 11.68 -8 11 C-7.525625 10.54625 -7.05125 10.0925 -6.5625 9.625 C-4.90972192 8.06741796 -4.90972192 8.06741796 -4 6 C-3.01 6 -2.02 6 -1 6 C-1.33 4.35 -1.66 2.7 -2 1 C-1.34 0.67 -0.68 0.34 0 0 Z " fill="#4B5C78" transform="translate(32,30)"/>
<path d="M0 0 C3.26584771 3.26584771 2.85354675 7.53317576 3 12 C2.82187913 14.4046318 2.46405851 16.62814541 2 19 C-0.31 18.67 -2.62 18.34 -5 18 C-4.52949219 17.66355469 -4.05898438 17.32710937 -3.57421875 16.98046875 C-1.25657227 14.06471995 -1.17788982 10.90270639 -0.8125 7.3125 C-0.73064453 6.61060547 -0.64878906 5.90871094 -0.56445312 5.18554688 C-0.36470727 3.45833274 -0.18080012 1.72929997 0 0 Z " fill="#ACB5D2" transform="translate(40,36)"/>
<path d="M0 0 C0 4.62 0 9.24 0 14 C-2.97 13.505 -2.97 13.505 -6 13 C-6 10 -6 10 -4 8 C-3.83322718 4.41656024 -3.83322718 4.41656024 -4 1 C-2 0 -2 0 0 0 Z " fill="#B5DDB9" transform="translate(61,35)"/>
<path d="M0 0 C5.75 -0.125 5.75 -0.125 8 1 C8 3.31 8 5.62 8 8 C5.36 7.67 2.72 7.34 0 7 C0 4.69 0 2.38 0 0 Z " fill="#E5C582" transform="translate(16,14)"/>
<path d="M0 0 C-0.33 4.95 -0.66 9.9 -1 15 C-6 11 -6 11 -6.375 8.96484375 C-5.36582064 3.50896785 -5.36582064 3.50896785 -3.5625 1 C-2 0 -2 0 0 0 Z " fill="#F2F8FC" transform="translate(42,20)"/>
<path d="M0 0 C4.75 0.75 4.75 0.75 7 3 C7.66 2.67 8.32 2.34 9 2 C9.1875 4.3125 9.1875 4.3125 9 7 C8.01 7.99 7.02 8.98 6 10 C3.69 7.69 1.38 5.38 -1 3 C-0.67 2.01 -0.34 1.02 0 0 Z " fill="#A7AFC2" transform="translate(33,31)"/>
<path d="M0 0 C0.99 0.33 1.98 0.66 3 1 C2.67 4.63 2.34 8.26 2 12 C0.68 11.67 -0.64 11.34 -2 11 C-2 7.7 -2 4.4 -2 1 C-1.34 0.67 -0.68 0.34 0 0 Z " fill="#A4ACBB" transform="translate(21,35)"/>
<path d="M0 0 C0 3.96 0 7.92 0 12 C-0.99 11.67 -1.98 11.34 -3 11 C-3 9.68 -3 8.36 -3 7 C-4.32 6.34 -5.64 5.68 -7 5 C-7 4.01 -7 3.02 -7 2 C-2.25 0 -2.25 0 0 0 Z " fill="#7DBDBA" transform="translate(33,41)"/>
<path d="M0 0 C0 3.10551666 -0.5393715 4.35261084 -2 7 C-0.35 7 1.3 7 3 7 C3.33 8.65 3.66 10.3 4 12 C2.02 12.33 0.04 12.66 -2 13 C-1.67 11.68 -1.34 10.36 -1 9 C-2.32 8.67 -3.64 8.34 -5 8 C-3.8141763 4.62496331 -2.72426311 2.35277269 0 0 Z " fill="#58CDBF" transform="translate(27,24)"/>
<path d="M0 0 C1.65 0.33 3.3 0.66 5 1 C4.67 2.65 4.34 4.3 4 6 C2.68 6 1.36 6 0 6 C-0.33 6.99 -0.66 7.98 -1 9 C-0.67 6.03 -0.34 3.06 0 0 Z " fill="#606D86" transform="translate(45,21)"/>
<path d="M0 0 C1.2065625 0.0309375 1.2065625 0.0309375 2.4375 0.0625 C1.8125 7.5625 1.8125 7.5625 -1.5625 12.0625 C-1.5625 8.7625 -1.5625 5.4625 -1.5625 2.0625 C-2.2225 1.7325 -2.8825 1.4025 -3.5625 1.0625 C-2.5625 0.0625 -2.5625 0.0625 0 0 Z " fill="#ADB4CC" transform="translate(43.5625,17.9375)"/>
<path d="M0 0 C1.32 0.66 2.64 1.32 4 2 C3.67 3.32 3.34 4.64 3 6 C1.68 6 0.36 6 -1 6 C-1.625 4.125 -1.625 4.125 -2 2 C-1.34 1.34 -0.68 0.68 0 0 Z " fill="#B9D9E2" transform="translate(12,22)"/>
<path d="M0 0 C3.39495798 3.39495798 3.39495798 3.39495798 3.75 7 C3.86601563 8.0209375 3.86601563 8.0209375 3.984375 9.0625 C4 11 4 11 3 14 C2.01 14 1.02 14 0 14 C0 9.38 0 4.76 0 0 Z " fill="#D7F9F8" transform="translate(52,28)"/>
<path d="M0 0 C1.65 0 3.3 0 5 0 C4.67 2.31 4.34 4.62 4 7 C3.34 7 2.68 7 2 7 C1.67 8.32 1.34 9.64 1 11 C0.67 7.37 0.34 3.74 0 0 Z " fill="#A1ABC4" transform="translate(49,21)"/>
<path d="M0 0 C0.66 0 1.32 0 2 0 C1.67 3.96 1.34 7.92 1 12 C0.01 12.33 -0.98 12.66 -2 13 C-1.34 8.71 -0.68 4.42 0 0 Z " fill="#A9B4C8" transform="translate(48,45)"/>
<path d="M0 0 C0.99 1.485 0.99 1.485 2 3 C2.99 3.33 3.98 3.66 5 4 C4.67 5.65 4.34 7.3 4 9 C3.01 9.33 2.02 9.66 1 10 C-0.1577506 6.52674819 -0.06866652 3.63932552 0 0 Z " fill="#596580" transform="translate(43,36)"/>
<path d="M0 0 C0 2.97 0 5.94 0 9 C-0.33 8.34 -0.66 7.68 -1 7 C-1.66 7 -2.32 7 -3 7 C-3.33 5.02 -3.66 3.04 -4 1 C-2 0 -2 0 0 0 Z " fill="#E4C9C3" transform="translate(61,35)"/>
<path d="M0 0 C-0.66 0.66 -1.32 1.32 -2 2 C-2.67292501 3.96690374 -2.67292501 3.96690374 -3.125 6.125 C-3.558125 8.043125 -3.558125 8.043125 -4 10 C-4.66 9.34 -5.32 8.68 -6 8 C-5.625 4.375 -5.625 4.375 -5 1 C-5.99 0.67 -6.98 0.34 -8 0 C-2.25 -1.125 -2.25 -1.125 0 0 Z " fill="#6DBBB6" transform="translate(40,21)"/>
<path d="M0 0 C2.49505962 2.49505962 2.35948376 3.67328888 2.625 7.125 C2.69976562 8.03507812 2.77453125 8.94515625 2.8515625 9.8828125 C2.92503906 10.93082031 2.92503906 10.93082031 3 12 C2.34 12 1.68 12 1 12 C-0.47075246 7.58774263 -1.36884358 4.51718381 0 0 Z " fill="#98A1BE" transform="translate(40,36)"/>
<path d="M0 0 C0 1.65 0 3.3 0 5 C-1.98 5.66 -3.96 6.32 -6 7 C-5.67 5.02 -5.34 3.04 -5 1 C-1.125 0 -1.125 0 0 0 Z " fill="#495873" transform="translate(50,26)"/>
<path d="M0 0 C0.33 0 0.66 0 1 0 C1.05447047 1.41623216 1.09300508 2.83308191 1.125 4.25 C1.14820313 5.03890625 1.17140625 5.8278125 1.1953125 6.640625 C0.9828378 9.20731941 0.28654105 10.7916067 -1 13 C-1.33 13 -1.66 13 -2 13 C-1.85851011 11.3954444 -1.71164314 9.79136233 -1.5625 8.1875 C-1.48128906 7.29417969 -1.40007813 6.40085937 -1.31640625 5.48046875 C-1 3 -1 3 0 0 Z " fill="#5CCBBF" transform="translate(52,31)"/>
<path d="M0 0 C0 1.32 0 2.64 0 4 C-1.98 4.33 -3.96 4.66 -6 5 C-5.625 3.0625 -5.625 3.0625 -5 1 C-3 0 -3 0 0 0 Z " fill="#D9EAF4" transform="translate(31,32)"/>
<path d="M0 0 C2.1875 0.3125 2.1875 0.3125 4 1 C3.67 2.32 3.34 3.64 3 5 C1.02 4.34 -0.96 3.68 -3 3 C-1.75 1.4375 -1.75 1.4375 0 0 Z " fill="#47D0C2" transform="translate(28,42)"/>
<path d="M0 0 C0.99 0.33 1.98 0.66 3 1 C2.34 1 1.68 1 1 1 C1.309375 2.1446875 1.309375 2.1446875 1.625 3.3125 C2 6 2 6 0 9 C-1.32 8.01 -2.64 7.02 -4 6 C-3.01 6 -2.02 6 -1 6 C-1.33 4.35 -1.66 2.7 -2 1 C-1.34 0.67 -0.68 0.34 0 0 Z " fill="#51708B" transform="translate(32,30)"/>
<path d="M0 0 C0.99 0.33 1.98 0.66 3 1 C3.33 2.98 3.66 4.96 4 7 C2.02 5.35 0.04 3.7 -2 2 C-1.34 1.34 -0.68 0.68 0 0 Z " fill="#EDF3FA" transform="translate(36,34)"/>
<path d="M0 0 C0 1.65 0 3.3 0 5 C-0.66 5 -1.32 5 -2 5 C-2.33 6.65 -2.66 8.3 -3 10 C-3.33 10 -3.66 10 -4 10 C-3.88637738 8.5199159 -3.75877092 7.04089926 -3.625 5.5625 C-3.55539063 4.73878906 -3.48578125 3.91507813 -3.4140625 3.06640625 C-3.27742188 2.38449219 -3.14078125 1.70257813 -3 1 C-1 0 -1 0 0 0 Z " fill="#6E8CAB" transform="translate(50,40)"/>
<path d="M0 0 C0.99 0.33 1.98 0.66 3 1 C3 3.31 3 5.62 3 8 C2.34 8 1.68 8 1 8 C-0.35439668 5.29120665 -0.06501451 2.99066732 0 0 Z " fill="#EFF7FB" transform="translate(20,39)"/>
<path d="M0 0 C1.65 0 3.3 0 5 0 C5 1.32 5 2.64 5 4 C3.35 4 1.7 4 0 4 C0 2.68 0 1.36 0 0 Z " fill="#FEF8DF" transform="translate(18,16)"/>
<path d="M0 0 C0.78375 0.04125 1.5675 0.0825 2.375 0.125 C2.045 1.115 1.715 2.105 1.375 3.125 C-0.275 3.455 -1.925 3.785 -3.625 4.125 C-3.955 3.465 -4.285 2.805 -4.625 2.125 C-2.625 0.125 -2.625 0.125 0 0 Z " fill="#2E526E" transform="translate(28.625,38.875)"/>
</svg>
