<svg width="72.000000" height="64.000000" viewBox="0 0 72 64" fill="none" xmlns="http://www.w3.org/2000/svg" xmlns:xlink="http://www.w3.org/1999/xlink">
	<desc>
			Created with Pixso.
	</desc>
	<defs>
		<clipPath id="clip14_4272">
			<rect id="Rating" rx="-0.500000" width="71.000000" height="63.000000" transform="translate(0.500000 0.500000)" fill="white" fill-opacity="0"/>
		</clipPath>
	</defs>
	<rect id="Rating" rx="-0.500000" width="71.000000" height="63.000000" transform="translate(0.500000 0.500000)" fill="#FFFFFF" fill-opacity="0"/>
	<g clip-path="url(#clip14_4272)">
		<path id="Vector" d="M38.68 22.3L55.98 37.13C55.78 37.25 55.58 37.38 55.38 37.51C53.13 39.06 50.37 40.05 47.98 40.05C45.53 40.05 42.88 39.08 40.58 37.51C37.82 35.57 34.13 35.57 31.37 37.51C29.23 38.98 26.62 40.05 23.97 40.05C22.71 40.05 21.33 39.77 19.98 39.27C20.38 24.15 32.77 12 48 12L56 12C58.21 12 60 13.78 60 16C60 18.21 58.21 20 56 20L48 20C44.63 20 41.46 20.82 38.68 22.3ZM20 20C20 22.12 19.15 24.15 17.65 25.65C16.15 27.15 14.12 28 12 28C9.87 28 7.84 27.15 6.34 25.65C4.84 24.15 4 22.12 4 20C4 17.87 4.84 15.84 6.34 14.34C7.84 12.84 9.87 12 12 12C14.12 12 16.15 12.84 17.65 14.34C19.15 15.84 20 17.87 20 20ZM38.31 40.73C41.12 42.67 44.56 44 48 44C51.36 44 54.92 42.65 57.67 40.73C59.16 39.67 61.18 39.76 62.57 40.95C64.37 42.43 66.63 43.57 68.9 44.1C71.05 44.6 72.38 46.75 71.88 48.9C71.38 51.05 69.23 52.38 67.08 51.88C64.02 51.17 61.47 49.82 59.81 48.76C56.18 50.71 52.12 52 48 52C44.01 52 40.42 50.76 37.95 49.63C37.22 49.3 36.56 48.97 36 48.67C35.43 48.97 34.78 49.31 34.05 49.63C31.57 50.76 27.98 52 24 52C19.87 52 15.81 50.71 12.18 48.77C10.51 49.82 7.97 51.18 4.91 51.9C2.76 52.4 0.61 51.06 0.11 48.91C-0.39 46.76 0.95 44.61 3.1 44.11C5.36 43.58 7.62 42.45 9.42 40.96C10.81 39.78 12.83 39.7 14.32 40.75C17.08 42.65 20.63 44 24 44C27.43 44 30.87 42.67 33.68 40.73C35.07 39.75 36.92 39.75 38.31 40.73Z" fill="#D8AE5E" fill-opacity="1.000000" fill-rule="nonzero"/>
	</g>
</svg>
