<?xml version="1.0" encoding="UTF-8"?>
<svg version="1.1" xmlns="http://www.w3.org/2000/svg" width="72" height="72">
<path d="M0 0 C1.30723022 0.00821777 1.30723022 0.00821777 2.64086914 0.01660156 C12.52613552 0.33562899 19.7920025 4.20099642 27.1875 10.625 C28.8828125 12.73828125 28.8828125 12.73828125 30.3125 14.9375 C30.78945312 15.65550781 31.26640625 16.37351562 31.7578125 17.11328125 C35.52247668 23.72715849 36.77014705 28.74224673 36.75 36.3125 C36.7490332 37.19301025 36.74806641 38.07352051 36.74707031 38.98071289 C36.48038314 48.93124971 32.65576624 56.17854604 26.1875 63.625 C24.07421875 65.3203125 24.07421875 65.3203125 21.875 66.75 C21.15699219 67.22695312 20.43898437 67.70390625 19.69921875 68.1953125 C13.08534151 71.95997668 8.07025327 73.20764705 0.5 73.1875 C-0.82076538 73.1860498 -0.82076538 73.1860498 -2.16821289 73.18457031 C-12.11874971 72.91788314 -19.36604604 69.09326624 -26.8125 62.625 C-28.5078125 60.51171875 -28.5078125 60.51171875 -29.9375 58.3125 C-30.41445313 57.59449219 -30.89140625 56.87648437 -31.3828125 56.13671875 C-35.14726347 49.5232161 -36.39586597 44.50753003 -36.375 36.9375 C-36.37330811 36.05698975 -36.37161621 35.17647949 -36.36987305 34.26928711 C-36.11974811 25.1552027 -33.21014433 18.61723209 -27.3125 11.6875 C-26.4875 11.006875 -25.6625 10.32625 -24.8125 9.625 C-23.45125 8.3565625 -23.45125 8.3565625 -22.0625 7.0625 C-15.44745788 1.71115831 -8.38352537 -0.10730392 0 0 Z " fill="#C8102E" transform="translate(35.8125,-0.625)"/>
<path d="M0 0 C10.23 0 20.46 0 31 0 C29.8873603 8.90111758 27.31803391 15.50646515 21 22 C14.47695889 26.97175258 8.36886263 31 0 31 C0 20.77 0 10.54 0 0 Z " fill="#F6E9ED" transform="translate(41,41)"/>
<path d="M0 0 C10.23 0 20.46 0 31 0 C31 10.23 31 20.46 31 31 C22.09888242 29.8873603 15.49353485 27.31803391 9 21 C4.02824742 14.47695889 0 8.36886263 0 0 Z " fill="#F6E9EC" transform="translate(0,41)"/>
<path d="M0 0 C8.90111758 1.1126397 15.50646515 3.68196609 22 10 C26.97175258 16.52304111 31 22.63113737 31 31 C20.77 31 10.54 31 0 31 C0 20.77 0 10.54 0 0 Z " fill="#F6E9ED" transform="translate(41,0)"/>
<path d="M0 0 C0 10.23 0 20.46 0 31 C-10.23 31 -20.46 31 -31 31 C-29.79679933 21.37439462 -27.33282529 15.4385783 -20 9 C-18.63875 7.7315625 -18.63875 7.7315625 -17.25 6.4375 C-12.01545719 2.16329967 -6.7353413 0 0 0 Z " fill="#F6E9ED" transform="translate(31,0)"/>
<path d="M0 0 C2 0 2 0 4.1875 2.125 C4.61804687 2.57488281 5.04859375 3.02476563 5.4921875 3.48828125 C8.16800661 6.17103253 11.09850537 8.5667581 14 11 C10.30736337 15.69971935 5.44710538 16.9931717 0 19 C0 12.73 0 6.46 0 0 Z " fill="#0D2B70" transform="translate(45,53)"/>
<path d="M0 0 C0 6.27 0 12.54 0 19 C-10.17857143 15.25 -10.17857143 15.25 -14 11 C-12.58510266 9.72719706 -11.16800334 8.4568417 -9.75 7.1875 C-8.96109375 6.47980469 -8.1721875 5.77210937 -7.359375 5.04296875 C-1.53537285 0 -1.53537285 0 0 0 Z " fill="#0E2C70" transform="translate(27,53)"/>
<path d="M0 0 C10.17857143 3.75 10.17857143 3.75 14 8 C12.60886005 9.27596932 11.21185587 10.54554648 9.8125 11.8125 C9.03519531 12.52019531 8.25789063 13.22789063 7.45703125 13.95703125 C5 16 5 16 0 19 C0 12.73 0 6.46 0 0 Z " fill="#0D2B70" transform="translate(45,0)"/>
<path d="M0 0 C0 6.27 0 12.54 0 19 C-4.7849306 15.45255145 -9.46183499 11.85744026 -14 8 C-10.99874172 4.34629427 -5.02023114 0 0 0 Z " fill="#112F72" transform="translate(27,0)"/>
<path d="M0 0 C3.00696216 -0.44410518 5.17474149 -0.51361308 7.80761719 1.125 C9.72791955 2.68976628 11.55834392 4.31608497 13.375 6 C14.01566406 6.57234375 14.65632813 7.1446875 15.31640625 7.734375 C16.88948117 9.14309881 18.44639522 10.56983231 20 12 C19.34 13.32 18.68 14.64 18 16 C13.65024999 13.19160284 9.60360714 10.18559409 5.625 6.875 C5.07972656 6.43285156 4.53445312 5.99070312 3.97265625 5.53515625 C2.60838023 4.40338842 1.29880762 3.20633588 0 2 C0 1.34 0 0.68 0 0 Z " fill="#CC233F" transform="translate(45,45)"/>
<path d="M0 0 C4.35444339 2.41913522 8.03163281 5.35487466 11.8125 8.5625 C12.40998047 9.05685547 13.00746094 9.55121094 13.62304688 10.06054688 C15.12267212 11.32708751 16.56661321 12.65895438 18 14 C18 14.66 18 15.32 18 16 C14.99303784 16.44410518 12.82525851 16.51361308 10.19238281 14.875 C8.27208045 13.31023372 6.44165608 11.68391503 4.625 10 C3.98433594 9.42765625 3.34367188 8.8553125 2.68359375 8.265625 C1.11051883 6.85690119 -0.44639522 5.43016769 -2 4 C-1.34 2.68 -0.68 1.36 0 0 Z " fill="#CC233E" transform="translate(9,11)"/>
<path d="M0 0 C-1.60071785 4.40458964 -4.934782 6.79727914 -8.4375 9.6875 C-9.31631836 10.43483398 -9.31631836 10.43483398 -10.21289062 11.19726562 C-12.78366525 13.34784554 -14.79271544 14.93090515 -18 16 C-18.66 14.68 -19.32 13.36 -20 12 C-17.80673356 9.98099309 -15.59793296 7.98587974 -13.375 6 C-12.75753906 5.42765625 -12.14007812 4.8553125 -11.50390625 4.265625 C-7.65317275 0.8607659 -5.38948993 -0.7959862 0 0 Z " fill="#CC223D" transform="translate(27,45)"/>
<path d="M0 0 C0.99 0.66 1.98 1.32 3 2 C1.43428938 6.08612284 -1.4831834 8.50906119 -4.75 11.25 C-5.26304688 11.70890625 -5.77609375 12.1678125 -6.3046875 12.640625 C-9.08868924 14.99093803 -10.72225044 15.97568091 -14.390625 16.296875 C-15.25171875 16.19890625 -16.1128125 16.1009375 -17 16 C-15.45635766 12.01377066 -12.93174833 10.05718936 -9.625 7.4375 C-8.66851562 6.67308594 -7.71203125 5.90867187 -6.7265625 5.12109375 C-4.50104302 3.38977988 -2.2646037 1.67967051 0 0 Z " fill="#CC213D" transform="translate(62,11)"/>
<path d="M0 0 C0.99 2.64 1.98 5.28 3 8 C-1.62 8 -6.24 8 -11 8 C-3.21621622 0 -3.21621622 0 0 0 Z " fill="#193577" transform="translate(69,19)"/>
<path d="M0 0 C4.59621922 1.4870121 7.46972347 3.79812128 11 7 C11 7.33 11 7.66 11 8 C6.38 8 1.76 8 -3 8 C-2.01 5.36 -1.02 2.72 0 0 Z " fill="#133174" transform="translate(3,19)"/>
<path d="M0 0 C4.29 0 8.58 0 13 0 C8 6.57142857 8 6.57142857 3 8 C2.01 5.36 1.02 2.72 0 0 Z " fill="#143174" transform="translate(0,45)"/>
<path d="M0 0 C4.29 0 8.58 0 13 0 C12.01 2.64 11.02 5.28 10 8 C6.05205855 6.32971708 3.18203882 3.8204435 0 1 C0 0.67 0 0.34 0 0 Z " fill="#153274" transform="translate(59,45)"/>
</svg>
