<?xml version="1.0" encoding="UTF-8"?>
<svg version="1.1" xmlns="http://www.w3.org/2000/svg" width="72" height="72">
<path d="M0 0 C9.14264788 5.41739771 14.50567736 12.1913689 17.94140625 22.28515625 C18.48365531 25.43020079 18.40451561 28.49981392 18.375 31.6875 C18.36597656 32.95078125 18.35695313 34.2140625 18.34765625 35.515625 C18.33605469 36.47984375 18.32445313 37.4440625 18.3125 38.4375 C19.6325 39.0975 20.9525 39.7575 22.3125 40.4375 C22.3125 50.0075 22.3125 59.5775 22.3125 69.4375 C12.0825 69.4375 1.8525 69.4375 -8.6875 69.4375 C-9.0175 68.1175 -9.3475 66.7975 -9.6875 65.4375 C-10.49832031 65.48390625 -11.30914062 65.5303125 -12.14453125 65.578125 C-22.81465753 65.92592888 -30.64223467 64.31082642 -39 57.4375 C-46.79865739 49.76322311 -50.21888063 42.11541902 -50.3125 31.25 C-50.17264903 24.60502238 -49.44906387 19.07398667 -45.6875 13.4375 C-45.26339844 12.74527344 -44.83929688 12.05304687 -44.40234375 11.33984375 C-34.87446628 -2.85908229 -15.30164581 -7.25425686 0 0 Z " fill="#185F95" transform="translate(49.6875,2.5625)"/>
<path d="M0 0 C6.85988698 0.80874457 12.75690525 6.32108174 16.9375 11.4375 C21.50732942 17.76332869 22.26677414 23.39693705 22 31 C21.01 31 20.02 31 19 31 C16.85714286 23.57142857 16.85714286 23.57142857 16 20 C14.35 20 12.7 20 11 20 C11.0825 20.763125 11.165 21.52625 11.25 22.3125 C11 25 11 25 9.3125 26.8125 C6.60710524 28.20175677 5.00198512 28.39499804 2 28 C1.34 27.34 0.68 26.68 0 26 C-1.98821313 25.60235737 -3.98944339 25.26224651 -6 25 C-4.68 28.63 -3.36 32.26 -2 36 C0.31 36 2.62 36 5 36 C4.67 36.99 4.34 37.98 4 39 C1.525 39.495 1.525 39.495 -1 40 C-1.03867188 40.99580078 -1.03867188 40.99580078 -1.078125 42.01171875 C-1.35167685 46.27042372 -1.60661171 49.31157049 -3.75 53.0625 C-6.2337134 55.2012532 -7.76633979 55.73052832 -11 56 C-14.10970189 52.47567119 -15.67215019 49.4942609 -17 45 C-17.495 44.505 -17.495 44.505 -18 44 C-18.04092937 41.66702567 -18.04241723 39.33294775 -18 37 C-18.81984375 37.05800781 -19.6396875 37.11601563 -20.484375 37.17578125 C-29.27492447 37.54380665 -29.27492447 37.54380665 -32.75 34.9375 C-34.31255467 31.26549653 -34.56523322 28.95663255 -34 25 C-31.96048076 21.32886537 -30.52537139 20.2140402 -26.625 18.625 C-22.99523091 17.99917774 -20.54236763 18.07223705 -17 19 C-16.67 19.33 -16.34 19.66 -16 20 C-13.98405418 20.23427778 -11.961526 20.41336124 -9.9375 20.5625 C-8.83277344 20.64628906 -7.72804688 20.73007812 -6.58984375 20.81640625 C-5.73519531 20.87699219 -4.88054688 20.93757813 -4 21 C-4 18.69 -4 16.38 -4 14 C-4.67546875 14.02320313 -5.3509375 14.04640625 -6.046875 14.0703125 C-7.38492188 14.09738281 -7.38492188 14.09738281 -8.75 14.125 C-9.63171875 14.14820313 -10.5134375 14.17140625 -11.421875 14.1953125 C-14.1522171 13.9884684 -15.63025493 13.30335979 -18 12 C-19.99110401 11.61709538 -21.99100513 11.27395385 -24 11 C-24 10.34 -24 9.68 -24 9 C-21.69 9 -19.38 9 -17 9 C-17 7.68 -17 6.36 -17 5 C-12.90679703 2.59451579 -9.11170418 2.59312087 -4.4609375 2.34375 C-1.82596806 2.22762611 -1.82596806 2.22762611 0 0 Z " fill="#BBDAF3" transform="translate(43,4)"/>
<path d="M0 0 C0.66 0.66 1.32 1.32 2 2 C1.34773438 2.03738281 0.69546875 2.07476562 0.0234375 2.11328125 C-5.24823061 2.50982266 -9.48645533 2.99097022 -14 6 C-14.33 6.99 -14.66 7.98 -15 9 C-17.31 9 -19.62 9 -22 9 C-22.33 10.98 -22.66 12.96 -23 15 C-21.046875 14.93489583 -19.09375 14.86979167 -17.140625 14.8046875 C-14.67623776 15.02954035 -13.19299771 15.88663193 -11 17 C-8.64435404 17.44811137 -8.64435404 17.44811137 -6.25 17.625 C-5.45078125 17.69976563 -4.6515625 17.77453125 -3.828125 17.8515625 C-3.22484375 17.90054687 -2.6215625 17.94953125 -2 18 C-2 18.66 -2 19.32 -2 20 C-3.60379341 20.05416188 -5.20811406 20.09286638 -6.8125 20.125 C-7.70582031 20.14820312 -8.59914063 20.17140625 -9.51953125 20.1953125 C-12 20 -12 20 -15 18 C-20.07191027 18.33242858 -24.94256513 19.9261857 -29 23 C-31.67249874 27.00874811 -31.71257778 30.28538653 -31 35 C-29.14283813 37.90809543 -29.14283813 37.90809543 -27 40 C-27 40.66 -27 41.32 -27 42 C-22.05 41.505 -22.05 41.505 -17 41 C-16.71125 41.94875 -16.4225 42.8975 -16.125 43.875 C-15.23174891 47.05211578 -15.23174891 47.05211578 -13 49 C-12.01975505 51.57260793 -11.15224331 54.16980967 -10.29296875 56.78515625 C-9.17903281 59.23781125 -9.17903281 59.23781125 -6.5 59.8984375 C-3.31584946 60.02779362 -2.35861273 59.03328684 0 57 C0.66 57 1.32 57 2 57 C2.042721 58.66611905 2.04063832 60.33382885 2 62 C0.1224085 63.8775915 -2.79362777 63.34665543 -5.3125 63.4375 C-13.99035265 63.35796775 -20.62148139 60.84802902 -27.16015625 55.1015625 C-34.11653808 47.62825209 -37.43389163 39.50329922 -37.34765625 29.33984375 C-36.5087042 21.28024824 -32.85714872 13.5847232 -27 8 C-18.7733658 1.83002435 -10.38836534 -1.34663995 0 0 Z " fill="#3A96DD" transform="translate(39,2)"/>
<path d="M0 0 C1.07765625 0.11085938 2.1553125 0.22171875 3.265625 0.3359375 C4.08546875 0.43132813 4.9053125 0.52671875 5.75 0.625 C5.75 0.955 5.75 1.285 5.75 1.625 C5.00234375 1.68558594 4.2546875 1.74617187 3.484375 1.80859375 C2.49953125 1.89238281 1.5146875 1.97617188 0.5 2.0625 C-0.47453125 2.14371094 -1.4490625 2.22492187 -2.453125 2.30859375 C-4.81461753 2.57574584 -6.96901065 2.97871968 -9.25 3.625 C-9.25 4.945 -9.25 6.265 -9.25 7.625 C-11.56 7.625 -13.87 7.625 -16.25 7.625 C-16.25 8.285 -16.25 8.945 -16.25 9.625 C-15.3425 9.58375 -14.435 9.5425 -13.5 9.5 C-10.25 9.625 -10.25 9.625 -8.375 10.59375 C-5.85420536 11.81707681 -3.784413 12.03017792 -1 12.25 C-0.10796875 12.32476562 0.7840625 12.39953125 1.703125 12.4765625 C2.71632813 12.55003906 2.71632813 12.55003906 3.75 12.625 C3.75 14.935 3.75 17.245 3.75 19.625 C1.81280622 19.67906122 -0.12481921 19.71782025 -2.0625 19.75 C-3.14144531 19.77320312 -4.22039063 19.79640625 -5.33203125 19.8203125 C-8.25 19.625 -8.25 19.625 -11.25 17.625 C-15.55454783 17.94385539 -19.39665226 18.6432783 -23.25 20.625 C-25.72342266 24.33513399 -25.63503486 26.23560262 -25.25 30.625 C-24.20870836 32.90097057 -24.20870836 32.90097057 -22.25 34.625 C-19.29448474 35.32452489 -19.29448474 35.32452489 -16.0625 35.375 C-14.97582031 35.43171875 -13.88914062 35.4884375 -12.76953125 35.546875 C-11.93808594 35.57265625 -11.10664063 35.5984375 -10.25 35.625 C-10.12625 36.73875 -10.0025 37.8525 -9.875 39 C-9.6034187 42.65603677 -9.6034187 42.65603677 -7.25 44.625 C-6.57060826 46.62071323 -5.90438441 48.62094773 -5.25 50.625 C-4.59 51.615 -3.93 52.605 -3.25 53.625 C1.06392226 53.1456753 2.91569547 51.8792015 5.75 48.625 C6.125 50.875 6.125 50.875 5.75 53.625 C2.8951157 56.14792101 0.96675372 57.53808902 -2.875 57.8125 C-7.7835295 55.35823525 -9.31643889 49.45890277 -11.25 44.625 C-11.91 43.965 -12.57 43.305 -13.25 42.625 C-13.25 40.975 -13.25 39.325 -13.25 37.625 C-18.2 38.12 -18.2 38.12 -23.25 38.625 C-27.15076472 34.04160146 -29.12930665 30.89014113 -28.72265625 24.76953125 C-27.91791104 21.11824925 -26.21142927 18.76077733 -23.25 16.625 C-18.81216437 14.46925422 -15.06188672 12.98712735 -10.25 14.625 C-9.59 14.955 -8.93 15.285 -8.25 15.625 C-6.54636178 15.85122081 -4.83671299 16.03388473 -3.125 16.1875 C-2.21492188 16.27128906 -1.30484375 16.35507812 -0.3671875 16.44140625 C0.33148438 16.50199219 1.03015625 16.56257813 1.75 16.625 C1.75 15.965 1.75 15.305 1.75 14.625 C0.84507813 14.65980469 0.84507813 14.65980469 -0.078125 14.6953125 C-1.27695312 14.72238281 -1.27695312 14.72238281 -2.5 14.75 C-3.28890625 14.77320313 -4.0778125 14.79640625 -4.890625 14.8203125 C-7.49174937 14.60498763 -8.95968246 13.82469014 -11.25 12.625 C-13.91353755 12.10979018 -16.54499131 11.89550087 -19.25 11.625 C-18.92 9.645 -18.59 7.665 -18.25 5.625 C-15.94 5.625 -13.63 5.625 -11.25 5.625 C-11.1675 5.00625 -11.085 4.3875 -11 3.75 C-10.25 1.625 -10.25 1.625 -8.59375 0.46875 C-5.52684978 -0.63533408 -3.22751562 -0.35081691 0 0 Z " fill="#1F669C" transform="translate(35.25,5.375)"/>
<path d="M0 0 C8.91 0 17.82 0 27 0 C27 1.98 27 3.96 27 6 C26 7 26 7 23.49975586 7.11352539 C22.41573486 7.10828857 21.33171387 7.10305176 20.21484375 7.09765625 C19.04501953 7.09443359 17.87519531 7.09121094 16.66992188 7.08789062 C14.82237305 7.07532227 14.82237305 7.07532227 12.9375 7.0625 C11.08415039 7.05573242 11.08415039 7.05573242 9.19335938 7.04882812 C6.12885883 7.03699608 3.06445279 7.02051173 0 7 C0 4.69 0 2.38 0 0 Z " fill="#00D3DD" transform="translate(43,63)"/>
<path d="M0 0 C8.91 0 17.82 0 27 0 C27 1.98 27 3.96 27 6 C26 7 26 7 23.49975586 7.11352539 C22.41573486 7.10828857 21.33171387 7.10305176 20.21484375 7.09765625 C19.04501953 7.09443359 17.87519531 7.09121094 16.66992188 7.08789062 C14.82237305 7.07532227 14.82237305 7.07532227 12.9375 7.0625 C11.08415039 7.05573242 11.08415039 7.05573242 9.19335938 7.04882812 C6.12885883 7.03699608 3.06445279 7.02051173 0 7 C0 4.69 0 2.38 0 0 Z " fill="#00D3DD" transform="translate(43,54)"/>
<path d="M0 0 C8.91 0 17.82 0 27 0 C27 1.98 27 3.96 27 6 C26 7 26 7 23.49975586 7.11352539 C22.41573486 7.10828857 21.33171387 7.10305176 20.21484375 7.09765625 C19.04501953 7.09443359 17.87519531 7.09121094 16.66992188 7.08789062 C14.82237305 7.07532227 14.82237305 7.07532227 12.9375 7.0625 C11.08415039 7.05573242 11.08415039 7.05573242 9.19335938 7.04882812 C6.12885883 7.03699608 3.06445279 7.02051173 0 7 C0 4.69 0 2.38 0 0 Z " fill="#00D3DD" transform="translate(43,45)"/>
<path d="M0 0 C1.5 1 1.5 1 3 3 C3.27345479 5.71846235 3.13491285 8.25677199 3 11 C4.98 11 6.96 11 9 11 C8.67 12.98 8.34 14.96 8 17 C3.38 17 -1.24 17 -6 17 C-6 15.02 -6 13.04 -6 11 C-8.64 11.33 -11.28 11.66 -14 12 C-14.66 10.02 -15.32 8.04 -16 6 C-12 7 -12 7 -10.1875 7.75 C-6.51840362 8.1693253 -4.14032861 6.7775445 -1 5 C0.05167527 2.42267086 0.05167527 2.42267086 0 0 Z " fill="#3A95DC" transform="translate(56,26)"/>
<path d="M0 0 C0.04254356 1.99954746 0.04080783 4.00041636 0 6 C-1 7 -1 7 -3.50024414 7.11352539 C-4.58426514 7.10828857 -5.66828613 7.10305176 -6.78515625 7.09765625 C-7.95498047 7.09443359 -9.12480469 7.09121094 -10.33007812 7.08789062 C-12.17762695 7.07532227 -12.17762695 7.07532227 -14.0625 7.0625 C-15.91584961 7.05573242 -15.91584961 7.05573242 -17.80664062 7.04882812 C-20.87114117 7.03699608 -23.93554721 7.02051173 -27 7 C-27 6.67 -27 6.34 -27 6 C-22.05 5.67 -17.1 5.34 -12 5 C-11.67 4.01 -11.34 3.02 -11 2 C-9.35440244 1.66550467 -7.70851502 1.33243501 -6.0625 1 C-4.68771484 0.7215625 -4.68771484 0.7215625 -3.28515625 0.4375 C-1 0 -1 0 0 0 Z " fill="#05B5C9" transform="translate(70,63)"/>
<path d="M0 0 C0.04254356 1.99954746 0.04080783 4.00041636 0 6 C-1 7 -1 7 -3.50024414 7.11352539 C-4.58426514 7.10828857 -5.66828613 7.10305176 -6.78515625 7.09765625 C-7.95498047 7.09443359 -9.12480469 7.09121094 -10.33007812 7.08789062 C-12.17762695 7.07532227 -12.17762695 7.07532227 -14.0625 7.0625 C-15.91584961 7.05573242 -15.91584961 7.05573242 -17.80664062 7.04882812 C-20.87114117 7.03699608 -23.93554721 7.02051173 -27 7 C-27 6.67 -27 6.34 -27 6 C-22.05 5.67 -17.1 5.34 -12 5 C-11.67 4.01 -11.34 3.02 -11 2 C-9.35440244 1.66550467 -7.70851502 1.33243501 -6.0625 1 C-4.68771484 0.7215625 -4.68771484 0.7215625 -3.28515625 0.4375 C-1 0 -1 0 0 0 Z " fill="#05B5C9" transform="translate(70,54)"/>
<path d="M0 0 C1.12591553 0.04713135 2.25183105 0.0942627 3.41186523 0.14282227 C5.23427734 0.21533203 5.23427734 0.21533203 7.09350586 0.28930664 C8.37290039 0.34538086 9.65229492 0.40145508 10.97045898 0.45922852 C12.89535156 0.53753906 12.89535156 0.53753906 14.85913086 0.61743164 C18.0422929 0.74759812 21.22517902 0.88257852 24.40795898 1.02172852 C24.40795898 1.35172852 24.40795898 1.68172852 24.40795898 2.02172852 C15.82795898 2.02172852 7.24795898 2.02172852 -1.59204102 2.02172852 C-1.59204102 4.66172852 -1.59204102 7.30172852 -1.59204102 10.02172852 C6.98795898 10.02172852 15.56795898 10.02172852 24.40795898 10.02172852 C24.40795898 10.35172852 24.40795898 10.68172852 24.40795898 11.02172852 C15.82795898 11.02172852 7.24795898 11.02172852 -1.59204102 11.02172852 C-1.59204102 13.00172852 -1.59204102 14.98172852 -1.59204102 17.02172852 C-1.92204102 17.02172852 -2.25204102 17.02172852 -2.59204102 17.02172852 C-3.70786748 11.72155281 -3.93772791 6.4205444 -3.59204102 1.02172852 C-2.59204102 0.02172852 -2.59204102 0.02172852 0 0 Z " fill="#146B9B" transform="translate(44.592041015625,42.978271484375)"/>
<path d="M0 0 C0.04254356 1.99954746 0.04080783 4.00041636 0 6 C-1 7 -1 7 -3.50024414 7.11352539 C-4.58426514 7.10828857 -5.66828613 7.10305176 -6.78515625 7.09765625 C-7.95498047 7.09443359 -9.12480469 7.09121094 -10.33007812 7.08789062 C-12.17762695 7.07532227 -12.17762695 7.07532227 -14.0625 7.0625 C-15.91584961 7.05573242 -15.91584961 7.05573242 -17.80664062 7.04882812 C-20.87114117 7.03699608 -23.93554721 7.02051173 -27 7 C-27 6.67 -27 6.34 -27 6 C-22.05 5.67 -17.1 5.34 -12 5 C-11.67 4.01 -11.34 3.02 -11 2 C-9.35440244 1.66550467 -7.70851502 1.33243501 -6.0625 1 C-4.68771484 0.7215625 -4.68771484 0.7215625 -3.28515625 0.4375 C-1 0 -1 0 0 0 Z " fill="#05B5C9" transform="translate(70,45)"/>
<path d="M0 0 C1.65 0 3.3 0 5 0 C7.48887372 4.68493876 6.85687773 7.9444214 6 13 C5.67 13 5.34 13 5 13 C4.34 9.7 3.68 6.4 3 3 C2.814375 3.763125 2.62875 4.52625 2.4375 5.3125 C0.38910478 9.14210845 -1.93999777 9.73999931 -6 11 C-9.94920145 10.88032723 -12.85384396 8.21660994 -16 6 C-16.33 6.66 -16.66 7.32 -17 8 C-17 7.01 -17 6.02 -17 5 C-14.125 4.875 -14.125 4.875 -11 5 C-10.34 5.66 -9.68 6.32 -9 7 C-5.40320934 6.67673447 -5.40320934 6.67673447 -2 6 C-1.34 4.02 -0.68 2.04 0 0 Z " fill="#1F669D" transform="translate(54,24)"/>
<path d="M0 0 C2.0374763 0.22858114 4.08040303 0.41024278 6.125 0.5625 C7.76855469 0.68818359 7.76855469 0.68818359 9.4453125 0.81640625 C10.28835937 0.87699219 11.13140625 0.93757813 12 1 C12 1.99 12 2.98 12 4 C10.06280622 4.05406122 8.12518079 4.09282025 6.1875 4.125 C5.10855469 4.14820313 4.02960937 4.17140625 2.91796875 4.1953125 C0 4 0 4 -3 2 C-4.175625 2 -5.35125 2 -6.5625 2 C-7.696875 2 -8.83125 2 -10 2 C-10.66 1.34 -11.32 0.68 -12 0 C-7.11407625 -1.88774327 -4.64891387 -2.32445694 0 0 Z " fill="#296EA4" transform="translate(27,21)"/>
<path d="M0 0 C1.32 0.33 2.64 0.66 4 1 C3.34 1 2.68 1 2 1 C2.66 3.31 3.32 5.62 4 8 C6.64 7.67 9.28 7.34 12 7 C11.67 8.65 11.34 10.3 11 12 C10.67 11.34 10.34 10.68 10 10 C7.69 10.33 5.38 10.66 3 11 C0 4.5 0 4.5 0 0 Z " fill="#226AA1" transform="translate(38,30)"/>
<path d="M0 0 C1.60294922 0.17982422 1.60294922 0.17982422 3.23828125 0.36328125 C4.45064453 0.52376953 4.45064453 0.52376953 5.6875 0.6875 C5.6875 1.0175 5.6875 1.3475 5.6875 1.6875 C4.93984375 1.74808594 4.1921875 1.80867187 3.421875 1.87109375 C2.43703125 1.95488281 1.4521875 2.03867188 0.4375 2.125 C-0.53703125 2.20621094 -1.5115625 2.28742187 -2.515625 2.37109375 C-4.87711753 2.63824584 -7.03151065 3.04121968 -9.3125 3.6875 C-9.6425 5.0075 -9.9725 6.3275 -10.3125 7.6875 C-10.6425 6.0375 -10.9725 4.3875 -11.3125 2.6875 C-7.29043665 -0.21525073 -4.88886187 -0.59096132 0 0 Z " fill="#2F71A3" transform="translate(35.3125,5.3125)"/>
<path d="M0 0 C0.33 1.32 0.66 2.64 1 4 C-1.1875 6.0625 -1.1875 6.0625 -4 8 C-6.8125 7.75 -6.8125 7.75 -9 7 C-8.67 6.34 -8.34 5.68 -8 5 C-7.21625 4.87625 -6.4325 4.7525 -5.625 4.625 C-2.85169518 4.23182651 -2.85169518 4.23182651 -1.1875 1.9375 C-0.795625 1.298125 -0.40375 0.65875 0 0 Z " fill="#3475A6" transform="translate(40,54)"/>
<path d="M0 0 C3.93774177 -0.36630156 5.56539771 -0.30233203 8.875 2 C9.926875 2.99 9.926875 2.99 11 4 C9.375 4.75 9.375 4.75 7 5 C3.75 3.0625 3.75 3.0625 1 1 C0.67 1.66 0.34 2.32 0 3 C0 2.01 0 1.02 0 0 Z " fill="#3B7AAB" transform="translate(37,29)"/>
<path d="M0 0 C1.32 0.33 2.64 0.66 4 1 C3.34 1 2.68 1 2 1 C2.33 2.98 2.66 4.96 3 7 C2.34 7 1.68 7 1 7 C0.67 4.69 0.34 2.38 0 0 Z " fill="#1A6197" transform="translate(38,30)"/>
<path d="M0 0 C3 4 3 4 3.07421875 6.359375 C2.94660156 7.14828125 2.81898437 7.9371875 2.6875 8.75 C2.50767578 9.94882812 2.50767578 9.94882812 2.32421875 11.171875 C2.21722656 11.77515625 2.11023437 12.3784375 2 13 C1.67 13 1.34 13 1 13 C0.67 8.71 0.34 4.42 0 0 Z " fill="#2A75AE" transform="translate(58,24)"/>
</svg>
