<?xml version="1.0" encoding="UTF-8"?>
<svg version="1.1" xmlns="http://www.w3.org/2000/svg" width="72" height="72">
<path d="M0 0 C1.134375 0.020625 2.26875 0.04125 3.4375 0.0625 C3.4375 0.7225 3.4375 1.3825 3.4375 2.0625 C4.35982422 2.01029297 4.35982422 2.01029297 5.30078125 1.95703125 C6.10902344 1.92996094 6.91726562 1.90289062 7.75 1.875 C8.95076172 1.82279297 8.95076172 1.82279297 10.17578125 1.76953125 C12.4375 2.0625 12.4375 2.0625 14.21875 3.28125 C15.79422932 5.58387362 15.74515272 6.98648744 15.625 9.75 C15.58439453 10.96236328 15.58439453 10.96236328 15.54296875 12.19921875 C15.49076172 13.12154297 15.49076172 13.12154297 15.4375 14.0625 C17.7475 14.3925 20.0575 14.7225 22.4375 15.0625 C22.4375 14.4025 22.4375 13.7425 22.4375 13.0625 C25.39414519 11.5841774 28.17979737 12.00217217 31.4375 12.0625 C30.921875 10.99 30.40625 9.9175 29.875 8.8125 C28.83847941 6.40855084 28.40908225 5.33246867 28.6875 2.6875 C29.4375 1.0625 29.4375 1.0625 30.4375 0.0625 C33.4375 -0.0625 33.4375 -0.0625 36.4375 0.0625 C37.4375 1.0625 37.4375 1.0625 37.6875 3.0625 C37.33697524 7.26879712 36.17216637 11.21122238 34.4375 15.0625 C31.48085481 16.5408226 28.69520263 16.12282783 25.4375 16.0625 C26.00339844 16.73796875 26.56929687 17.4134375 27.15234375 18.109375 C27.88582031 19.00140625 28.61929688 19.8934375 29.375 20.8125 C30.10589844 21.69421875 30.83679687 22.5759375 31.58984375 23.484375 C33.4375 26.0625 33.4375 26.0625 34.4375 30.0625 C37.4075 30.0625 40.3775 30.0625 43.4375 30.0625 C43.10789784 25.04714948 43.10789784 25.04714948 40.4375 21.0625 C41.125 18.625 41.125 18.625 42.4375 16.0625 C44.9375 15.125 44.9375 15.125 47.4375 15.0625 C49.4375 17.0625 49.4375 17.0625 49.625 20.125 C49.4375 23.0625 49.4375 23.0625 48.4375 24.0625 C48.2121669 26.0904979 47.98982815 28.11924874 47.81640625 30.15234375 C47.4375 32.0625 47.4375 32.0625 45.4375 34.0625 C43.0546875 34.2578125 43.0546875 34.2578125 40.3125 34.1875 C39.40242188 34.16945312 38.49234375 34.15140625 37.5546875 34.1328125 C36.85601562 34.10960937 36.15734375 34.08640625 35.4375 34.0625 C35.1075 37.0325 34.7775 40.0025 34.4375 43.0625 C35.71947266 43.04509766 35.71947266 43.04509766 37.02734375 43.02734375 C38.13207031 43.01832031 39.23679688 43.00929687 40.375 43 C41.47714844 42.98839844 42.57929687 42.97679687 43.71484375 42.96484375 C46.4375 43.0625 46.4375 43.0625 47.4375 44.0625 C47.47842937 46.39547433 47.47991723 48.72955225 47.4375 51.0625 C48.0975 51.0625 48.7575 51.0625 49.4375 51.0625 C49.47991723 53.39544775 49.47842937 55.72952567 49.4375 58.0625 C48.4375 59.0625 48.4375 59.0625 45.4375 59.1875 C42.4375 59.0625 42.4375 59.0625 41.4375 58.0625 C41.39657063 55.72952567 41.39508277 53.39544775 41.4375 51.0625 C42.0975 51.0625 42.7575 51.0625 43.4375 51.0625 C43.4375 49.7425 43.4375 48.4225 43.4375 47.0625 C36.3129766 46.81587274 36.3129766 46.81587274 30.1484375 49.91015625 C28.44621893 51.89607792 26.88898068 53.8877559 25.4375 56.0625 C26.22640625 56.15015625 27.0153125 56.2378125 27.828125 56.328125 C30.4375 57.0625 30.4375 57.0625 31.546875 58.734375 C31.75828125 59.42015625 31.9696875 60.1059375 32.1875 60.8125 C32.41308594 61.53179687 32.63867188 62.25109375 32.87109375 62.9921875 C33.05800781 63.67539062 33.24492188 64.35859375 33.4375 65.0625 C33.705625 66.01125 33.97375 66.96 34.25 67.9375 C34.311875 68.63875 34.37375 69.34 34.4375 70.0625 C32.4375 72.0625 32.4375 72.0625 29.3125 72.1875 C28.36375 72.14625 27.415 72.105 26.4375 72.0625 C25.7775 70.4125 25.1175 68.7625 24.4375 67.0625 C25.0975 66.4025 25.7575 65.7425 26.4375 65.0625 C27.08517793 62.49188689 27.08517793 62.49188689 27.4375 60.0625 C25.7875 59.7325 24.1375 59.4025 22.4375 59.0625 C22.4375 58.4025 22.4375 57.7425 22.4375 57.0625 C18.9725 57.5575 18.9725 57.5575 15.4375 58.0625 C15.23125 58.990625 15.025 59.91875 14.8125 60.875 C13.4375 64.0625 13.4375 64.0625 11.0625 65.875 C6.77545855 67.27937565 2.83010281 67.56320027 -1.66015625 67.75390625 C-4.62680631 68.06933741 -6.86123679 68.82834488 -9.5625 70.0625 C-9.5625 69.4025 -9.5625 68.7425 -9.5625 68.0625 C-10.2225 68.0625 -10.8825 68.0625 -11.5625 68.0625 C-12.25 66.3125 -12.25 66.3125 -12.5625 64.0625 C-11.125 61.8125 -11.125 61.8125 -9.5625 60.0625 C-4.8125 60.9375 -4.8125 60.9375 -2.5625 62.0625 C-0.51751575 61.97469597 1.52494948 61.82008462 3.5625 61.625 C5.20605469 61.47224609 5.20605469 61.47224609 6.8828125 61.31640625 C7.72585937 61.23261719 8.56890625 61.14882813 9.4375 61.0625 C9.4375 60.0725 9.4375 59.0825 9.4375 58.0625 C8.2 57.60875 6.9625 57.155 5.6875 56.6875 C3.53334398 55.89764279 1.56858065 55.13981818 -0.41015625 53.97265625 C-3.41063523 52.70385116 -6.00765982 52.83506076 -9.25 52.875 C-10.40886719 52.88144531 -11.56773438 52.88789062 -12.76171875 52.89453125 C-15.46711124 52.74594192 -15.46711124 52.74594192 -16.5625 54.0625 C-19.0625 54.1875 -19.0625 54.1875 -21.5625 54.0625 C-22.5625 53.0625 -22.5625 53.0625 -22.625 49.5 C-22.604375 48.365625 -22.58375 47.23125 -22.5625 46.0625 C-19.6875 45.4375 -19.6875 45.4375 -16.5625 45.0625 C-15.9025 45.7225 -15.2425 46.3825 -14.5625 47.0625 C-12.35999008 47.52256346 -12.35999008 47.52256346 -9.9375 47.6875 C-9.12023438 47.76226562 -8.30296875 47.83703125 -7.4609375 47.9140625 C-6.83445312 47.96304688 -6.20796875 48.01203125 -5.5625 48.0625 C-6.0575 46.9075 -6.5525 45.7525 -7.0625 44.5625 C-9.88510425 36.92802756 -8.70934717 31.40514341 -5.5625 24.0625 C-6.614375 24.289375 -7.66625 24.51625 -8.75 24.75 C-13.04293713 25.10188009 -14.30577158 24.77644035 -17.5625 22.0625 C-21.52282595 16.48870793 -22.83027498 11.89076199 -22.5625 5.0625 C-20.25 4.4375 -20.25 4.4375 -17.5625 4.0625 C-16.5725 4.7225 -15.5825 5.3825 -14.5625 6.0625 C-14.26072864 8.85388507 -14.5385857 10.97119085 -15.25 13.6875 C-15.83185937 16.05908384 -15.83185937 16.05908384 -14.4453125 17.68359375 C-10.54191869 20.54230333 -5.15940371 19.63634987 -0.5625 19.0625 C2.78502558 17.24871008 2.78502558 17.24871008 5.4375 15.0625 C8.8125 14.3125 8.8125 14.3125 11.4375 14.0625 C10.9425 10.5975 10.9425 10.5975 10.4375 7.0625 C8.10455225 7.02008277 5.77047433 7.02157063 3.4375 7.0625 C3.1075 7.3925 2.7775 7.7225 2.4375 8.0625 C0 8.25 0 8.25 -2.5625 8.0625 C-4.5625 6.0625 -4.5625 6.0625 -4.75 3.5 C-4.45120797 -0.38429636 -4.06574412 0.07132884 0 0 Z " fill="#546AE0" transform="translate(22.5625,-0.0625)"/>
<path d="M0 0 C3.74225404 1.1566967 5.28964665 1.79776291 7.4375 5.0625 C7.6875 8.8125 7.6875 8.8125 7.4375 12.0625 C8.0975 12.0625 8.7575 12.0625 9.4375 12.0625 C9.4375 17.3425 9.4375 22.6225 9.4375 28.0625 C2.8375 28.0625 -3.7625 28.0625 -10.5625 28.0625 C-10.5625 22.7825 -10.5625 17.5025 -10.5625 12.0625 C-9.9025 12.0625 -9.2425 12.0625 -8.5625 12.0625 C-8.7171875 10.4846875 -8.7171875 10.4846875 -8.875 8.875 C-8.5625 5.0625 -8.5625 5.0625 -6.5 2.0625 C-3.5625 0.0625 -3.5625 0.0625 0 0 Z " fill="#99DCF6" transform="translate(36.5625,20.9375)"/>
<path d="M0 0 C1.32 0 2.64 0 4 0 C3.52153935 4.30614589 2.34073619 6.24880549 -1 9 C-4.97558354 10.32519451 -8.82509225 10.37566333 -12.9921875 10.62109375 C-15.97658031 10.99704973 -18.27459596 11.75798008 -21 13 C-21 12.34 -21 11.68 -21 11 C-21.66 11 -22.32 11 -23 11 C-23.6875 9.25 -23.6875 9.25 -24 7 C-22.5625 4.75 -22.5625 4.75 -21 3 C-16.25 3.875 -16.25 3.875 -14 5 C-11.99907414 5.01421112 -9.99692872 4.9397082 -8 4.8125 C-6.9275 4.75707031 -5.855 4.70164062 -4.75 4.64453125 C-1.8615022 4.29709823 -1.8615022 4.29709823 -0.625 1.94921875 C-0.315625 0.98435547 -0.315625 0.98435547 0 0 Z " fill="#98E1F7" transform="translate(34,57)"/>
<path d="M0 0 C1 1 1 1 1.125 3.25 C1 6 1 6 0.3125 8.625 C-0.27173598 10.99697839 -0.27173598 10.99697839 1.125 12.60546875 C3.65109731 14.48425362 5.56866033 14.50403884 8.6875 14.6875 C9.68136719 14.75324219 10.67523437 14.81898437 11.69921875 14.88671875 C12.83810547 14.94279297 12.83810547 14.94279297 14 15 C13.26953125 16.94140625 13.26953125 16.94140625 12 19 C7.96124446 20.45204767 4.09014697 20.42657925 0.125 18.875 C-3.52525145 15.65418989 -5.5711144 11.61639964 -7 7 C-7.07646165 4.6679198 -7.09143299 2.33154122 -7 0 C-4.31633121 -1.3418344 -2.84719317 -0.73004953 0 0 Z " fill="#9BE6F8" transform="translate(7,5)"/>
<path d="M0 0 C1.134375 0.020625 2.26875 0.04125 3.4375 0.0625 C3.4375 0.7225 3.4375 1.3825 3.4375 2.0625 C4.05238281 2.02769531 4.66726562 1.99289063 5.30078125 1.95703125 C6.10902344 1.92996094 6.91726562 1.90289062 7.75 1.875 C8.95076172 1.82279297 8.95076172 1.82279297 10.17578125 1.76953125 C12.4375 2.0625 12.4375 2.0625 14.21875 3.25 C15.86091401 5.69219263 15.73857677 7.33486294 15.625 10.25 C15.59792969 11.15105469 15.57085937 12.05210938 15.54296875 12.98046875 C15.50816406 13.66753906 15.47335938 14.35460938 15.4375 15.0625 C14.1175 15.0625 12.7975 15.0625 11.4375 15.0625 C11.1075 12.4225 10.7775 9.7825 10.4375 7.0625 C8.10455225 7.02008277 5.77047433 7.02157063 3.4375 7.0625 C3.1075 7.3925 2.7775 7.7225 2.4375 8.0625 C0 8.25 0 8.25 -2.5625 8.0625 C-4.5625 6.0625 -4.5625 6.0625 -4.75 3.5 C-4.45120797 -0.38429636 -4.06574412 0.07132884 0 0 Z " fill="#9BE7F8" transform="translate(22.5625,-0.0625)"/>
<path d="M0 0 C2.14576637 -0.02685938 4.29162645 -0.04633088 6.4375 -0.0625 C7.63246094 -0.07410156 8.82742187 -0.08570313 10.05859375 -0.09765625 C13 0 13 0 14 1 C14.04092937 3.33297433 14.04241723 5.66705225 14 8 C14.66 8 15.32 8 16 8 C16.04241723 10.33294775 16.04092937 12.66702567 16 15 C15 16 15 16 12 16.125 C9 16 9 16 8 15 C7.95907063 12.66702567 7.95758277 10.33294775 8 8 C8.66 8 9.32 8 10 8 C10 6.68 10 5.36 10 4 C6.37 4 2.74 4 -1 4 C-0.67 2.68 -0.34 1.36 0 0 Z " fill="#9CE8F8" transform="translate(56,43)"/>
<path d="M0 0 C1 1 1 1 1.125 4 C1 7 1 7 0 8 C-0.2253331 10.0279979 -0.44767185 12.05674874 -0.62109375 14.08984375 C-1 16 -1 16 -3 18 C-5.6015625 18.1953125 -5.6015625 18.1953125 -8.625 18.125 C-10.12933594 18.09792969 -10.12933594 18.09792969 -11.6640625 18.0703125 C-12.43492188 18.04710938 -13.20578125 18.02390625 -14 18 C-14 16.68 -14 15.36 -14 14 C-11.03 14 -8.06 14 -5 14 C-5.32960216 8.98464948 -5.32960216 8.98464948 -8 5 C-6.22379628 0.05200394 -5.31049123 -1.71306169 0 0 Z " fill="#9DEBF9" transform="translate(71,16)"/>
<path d="M0 0 C3 0.125 3 0.125 4 1.125 C4.60741415 5.98431323 2.98117662 10.72642439 1 15.125 C-1.95664519 16.6033226 -4.74229737 16.18532783 -8 16.125 C-8 16.785 -8 17.445 -8 18.125 C-9.32 17.465 -10.64 16.805 -12 16.125 C-11.67 15.135 -11.34 14.145 -11 13.125 C-8.04335481 11.6466774 -5.25770263 12.06467217 -2 12.125 C-2.515625 11.0525 -3.03125 9.98 -3.5625 8.875 C-4.59902059 6.47105084 -5.02841775 5.39496867 -4.75 2.75 C-3.45932564 -0.04646111 -3.32336595 0.13847358 0 0 Z " fill="#9AE5F8" transform="translate(56,-0.125)"/>
<path d="M0 0 C1.703125 1.265625 1.703125 1.265625 3 3 C3.29296875 5.26171875 3.29296875 5.26171875 3.1875 7.6875 C3.16042969 8.49574219 3.13335937 9.30398437 3.10546875 10.13671875 C3.07066406 10.75160156 3.03585938 11.36648437 3 12 C1.68 12 0.36 12 -1 12 C-1.33 9.69 -1.66 7.38 -2 5 C-3.32 5 -4.64 5 -6 5 C-6.33 7.31 -6.66 9.62 -7 12 C-8.32 12 -9.64 12 -11 12 C-11.61307902 4.02997275 -11.61307902 4.02997275 -9.4375 0.375 C-5.92803102 -1.60470045 -3.81658625 -1.04088716 0 0 Z " fill="#F7FAFE" transform="translate(40,22)"/>
<path d="M0 0 C0.66 0 1.32 0 2 0 C2 0.66 2 1.32 2 2 C2.763125 2 3.52625 2 4.3125 2 C7 3 7 3 7.96484375 4.671875 C8.75482363 6.76276701 9.41027151 8.84444068 10 11 C10.268125 11.94875 10.53625 12.8975 10.8125 13.875 C10.874375 14.57625 10.93625 15.2775 11 16 C9 18 9 18 5.875 18.125 C4.451875 18.063125 4.451875 18.063125 3 18 C2.34 16.35 1.68 14.7 1 13 C1.66 12.34 2.32 11.68 3 11 C3.64767793 8.42938689 3.64767793 8.42938689 4 6 C2.35 5.67 0.7 5.34 -1 5 C-1.33 4.01 -1.66 3.02 -2 2 C-1.34 1.34 -0.68 0.68 0 0 Z " fill="#556AE0" transform="translate(46,54)"/>
<path d="M0 0 C0.33 0.33 0.66 0.66 1 1 C3.80823199 1.28397852 6.61646635 1.44846665 9.43359375 1.62109375 C12 2 12 2 14 4 C13.67 4.99 13.34 5.98 13 7 C12.07316406 6.98839844 11.14632813 6.97679687 10.19140625 6.96484375 C8.39509766 6.95130859 8.39509766 6.95130859 6.5625 6.9375 C4.77005859 6.92009766 4.77005859 6.92009766 2.94140625 6.90234375 C0.11126659 6.66098208 0.11126659 6.66098208 -1 8 C-3.5 8.125 -3.5 8.125 -6 8 C-7 7 -7 7 -7.0625 3.4375 C-7.041875 2.303125 -7.02125 1.16875 -7 0 C-4.31633121 -1.3418344 -2.84719317 -0.73004953 0 0 Z " fill="#556AE0" transform="translate(7,46)"/>
<path d="M0 0 C4.875 0.875 4.875 0.875 6 2 C6.375 4.375 6.375 4.375 6 7 C3.5 8.8125 3.5 8.8125 1 10 C0.67 9.34 0.34 8.68 0 8 C-0.66 8 -1.32 8 -2 8 C-2.6875 6.25 -2.6875 6.25 -3 4 C-1.5625 1.75 -1.5625 1.75 0 0 Z " fill="#576EE1" transform="translate(13,60)"/>
<path d="M0 0 C2.64 0 5.28 0 8 0 C8.04241723 2.33294775 8.04092937 4.66702567 8 7 C7 8 7 8 4 8.125 C1 8 1 8 0 7 C-0.04092937 4.66702567 -0.04241723 2.33294775 0 0 Z " fill="#556BE0" transform="translate(64,51)"/>
<path d="M0 0 C1 1 1 1 1.125 4 C1 7 1 7 0 8 C-2.375 8.25 -2.375 8.25 -5 8 C-6.8125 6.5 -6.8125 6.5 -8 5 C-6.22379628 0.05200394 -5.31049123 -1.71306169 0 0 Z " fill="#566DE0" transform="translate(71,16)"/>
<path d="M0 0 C1 1 1 1 1.25 3.4375 C1.1675 4.283125 1.085 5.12875 1 6 C-2 8 -2 8 -4.6875 7.625 C-5.450625 7.41875 -6.21375 7.2125 -7 7 C-7 4.69 -7 2.38 -7 0 C-4.31633121 -1.3418344 -2.84719317 -0.73004953 0 0 Z " fill="#546AE0" transform="translate(7,5)"/>
<path d="M0 0 C1.134375 0.020625 2.26875 0.04125 3.4375 0.0625 C3.47991723 2.39544775 3.47842937 4.72952567 3.4375 7.0625 C2.4375 8.0625 2.4375 8.0625 0 8.25 C-2.5625 8.0625 -2.5625 8.0625 -4.5625 6.0625 C-4.75 3.5 -4.75 3.5 -4.5625 1.0625 C-3.5625 0.0625 -3.5625 0.0625 0 0 Z " fill="#546AE0" transform="translate(22.5625,-0.0625)"/>
<path d="M0 0 C0.66 0 1.32 0 2 0 C2 0.66 2 1.32 2 2 C3.65 2.33 5.3 2.66 7 3 C9 9.875 9 9.875 9 11 C7.35 11 5.7 11 4 11 C4 9.35 4 7.7 4 6 C2.35 5.67 0.7 5.34 -1 5 C-1.33 4.01 -1.66 3.02 -2 2 C-1.34 1.34 -0.68 0.68 0 0 Z " fill="#99E3F7" transform="translate(46,54)"/>
<path d="M0 0 C2.9375 0.1875 2.9375 0.1875 3.9375 1.1875 C4.0625 3.6875 4.0625 3.6875 3.9375 6.1875 C2.9375 7.1875 2.9375 7.1875 -0.625 7.25 C-1.759375 7.229375 -2.89375 7.20875 -4.0625 7.1875 C-4.6875 4.8125 -4.6875 4.8125 -5.0625 2.1875 C-3.0625 0.1875 -3.0625 0.1875 0 0 Z " fill="#5469E0" transform="translate(56.0625,-0.1875)"/>
<path d="M0 0 C1.95803507 -0.05389087 3.91648909 -0.09274217 5.875 -0.125 C7.51082031 -0.15980469 7.51082031 -0.15980469 9.1796875 -0.1953125 C12 0 12 0 14 2 C13.67 2.99 13.34 3.98 13 5 C9.04 4.67 5.08 4.34 1 4 C0.67 2.68 0.34 1.36 0 0 Z " fill="#9AE4F8" transform="translate(7,48)"/>
<path d="M0 0 C2.64 0 5.28 0 8 0 C8 1.98 8 3.96 8 6 C5.36 6 2.72 6 0 6 C0 4.02 0 2.04 0 0 Z " fill="#E8FAFD" transform="translate(32,38)"/>
<path d="M0 0 C1.32 0 2.64 0 4 0 C4 2.31 4 4.62 4 7 C2.68 7 1.36 7 0 7 C0 4.69 0 2.38 0 0 Z " fill="#5D71E2" transform="translate(34,26)"/>
</svg>
