<?xml version="1.0" encoding="UTF-8"?>
<svg version="1.1" xmlns="http://www.w3.org/2000/svg" width="72" height="72">
<path d="M0 0 C2.78607107 2.12621213 4.10678316 3.53005642 5.375 6.8125 C5.6892972 10.89836364 5.00021477 13.03506997 2.43359375 16.2265625 C-4.28167863 23.19628507 -4.28167863 23.19628507 -8.625 23.8125 C-8.625 22.4925 -8.625 21.1725 -8.625 19.8125 C-9.285 19.4825 -9.945 19.1525 -10.625 18.8125 C-10.893125 19.451875 -11.16125 20.09125 -11.4375 20.75 C-12.625 22.8125 -12.625 22.8125 -15.625 23.8125 C-17.95799825 23.85204234 -20.29208189 23.85651732 -22.625 23.8125 C-22.625 25.1325 -22.625 26.4525 -22.625 27.8125 C-27.77950193 26.44807302 -30.91634981 23.27592357 -33.625 18.8125 C-34.25 15.125 -34.25 15.125 -33.625 11.8125 C-31.875 9.375 -31.875 9.375 -29.625 7.8125 C-28.305 7.8125 -26.985 7.8125 -25.625 7.8125 C-25.625 6.4925 -25.625 5.1725 -25.625 3.8125 C-18.89837203 -2.72727719 -8.62963099 -2.82694808 0 0 Z " fill="#30D0F6" transform="translate(50.625,25.1875)"/>
<path d="M0 0 C2.61295874 2.07746349 3.65099455 4.11306288 4.6875 7.25 C4.93886719 7.97703125 5.19023438 8.7040625 5.44921875 9.453125 C6.14542771 12.67247421 6.08408138 15.71682249 6 19 C3.39635591 19.24867947 0.79410106 19.47457902 -1.8125 19.6875 C-2.55048828 19.76033203 -3.28847656 19.83316406 -4.04882812 19.90820312 C-9.54974762 20.33135078 -9.54974762 20.33135078 -12.01171875 18.51953125 C-12.33785156 18.01808594 -12.66398437 17.51664063 -13 17 C-12.40819673 14.72591331 -11.80111282 12.45579908 -11.1875 10.1875 C-10.85105469 8.92292969 -10.51460937 7.65835937 -10.16796875 6.35546875 C-8.15850351 0.58245657 -6.1366316 -0.76707895 0 0 Z " fill="#FECE5A" transform="translate(65,5)"/>
<path d="M0 0 C3.0625 0.375 3.0625 0.375 4.8125 2 C6.24493087 4.72161866 7.16797309 7.43584017 8.0625 10.375 C8.3925 11.035 8.7225 11.695 9.0625 12.375 C9.10272391 14.7079866 9.10570247 17.04206666 9.0625 19.375 C6.4378399 19.56930855 3.81303235 19.75573238 1.1875 19.9375 C0.44113281 19.99357422 -0.30523437 20.04964844 -1.07421875 20.10742188 C-6.7109375 20.48828125 -6.7109375 20.48828125 -8.9375 19.375 C-9.4910024 13.00972245 -7.78679408 8.06318929 -4.9375 2.375 C-2.9375 0.375 -2.9375 0.375 0 0 Z " fill="#C6D743" transform="translate(9.9375,4.625)"/>
<path d="M0 0 C3.0625 0.3125 3.0625 0.3125 4.6484375 1.56640625 C6.23455354 3.52495285 6.96063426 5.17352008 7.75 7.5625 C8.00136719 8.28953125 8.25273438 9.0165625 8.51171875 9.765625 C9.0625 12.3125 9.0625 12.3125 9.0625 19.3125 C3.1225 19.3125 -2.8175 19.3125 -8.9375 19.3125 C-8.9375 10.28330292 -8.9375 10.28330292 -7.0625 6.4375 C-6.54042969 5.32761719 -6.54042969 5.32761719 -6.0078125 4.1953125 C-4.29293038 1.17862206 -3.51823764 0.3742806 0 0 Z " fill="#31D0F5" transform="translate(61.9375,47.6875)"/>
<path d="M0 0 C3.0625 0.375 3.0625 0.375 4.75 1.875 C7.85581275 7.79083381 9.48230326 12.65814788 9.0625 19.375 C5.84908631 20.98170684 2.43291032 20.20010855 -1.0625 19.9375 C-1.81660156 19.88529297 -2.57070312 19.83308594 -3.34765625 19.77929688 C-5.2112937 19.64954996 -7.07444996 19.51292512 -8.9375 19.375 C-10.39239101 14.90291891 -8.89863639 12.5878115 -6.9375 8.375 C-6.586875 7.281875 -6.23625 6.18875 -5.875 5.0625 C-4.59854503 1.40332909 -3.89189392 0.49683752 0 0 Z " fill="#FE66A3" transform="translate(9.9375,47.625)"/>
<path d="M0 0 C0.45375 1.11375 0.9075 2.2275 1.375 3.375 C2.72465986 6.96199008 2.72465986 6.96199008 5 9 C7.43252661 9.46162427 7.43252661 9.46162427 10.125 9.625 C11.03507812 9.69976562 11.94515625 9.77453125 12.8828125 9.8515625 C13.93082031 9.92503906 13.93082031 9.92503906 15 10 C12.375 14.875 12.375 14.875 9 16 C6.66700175 16.03954234 4.33291811 16.04401732 2 16 C2 17.32 2 18.64 2 20 C-3.15450193 18.63557302 -6.29134981 15.46342357 -9 11 C-9.70159403 6.86059524 -9.70914473 5.02432017 -7.3125 1.5625 C-4.61589191 -0.25953249 -3.18873549 -0.35430394 0 0 Z " fill="#FE65A3" transform="translate(26,33)"/>
<path d="M0 0 C0.721875 0.495 1.44375 0.99 2.1875 1.5 C2.1875 1.83 2.1875 2.16 2.1875 2.5 C1.13949219 2.56058594 0.09148438 2.62117188 -0.98828125 2.68359375 C-2.36720048 2.76801738 -3.74610605 2.85266447 -5.125 2.9375 C-6.16043945 2.99647461 -6.16043945 2.99647461 -7.21679688 3.05664062 C-10.28411535 3.24927415 -12.88218152 3.52322717 -15.8125 4.5 C-16.00741452 5.95736087 -16.19319358 7.41594593 -16.375 8.875 C-16.47941406 9.68710937 -16.58382812 10.49921875 -16.69140625 11.3359375 C-16.99487328 13.54899186 -16.99487328 13.54899186 -15.8125 15.5 C-13.28516765 16.15555119 -13.28516765 16.15555119 -10.8125 16.5 C-10.8125 16.83 -10.8125 17.16 -10.8125 17.5 C-13.88853007 17.86188589 -16.74488776 17.98300762 -19.8125 17.5 C-23.47550215 14.44749821 -24.98025163 12.02200571 -25.9375 7.375 C-25.8125 3.5 -25.8125 3.5 -23.625 1.0625 C-17.07203264 -2.57803742 -6.79459991 -3.45432897 0 0 Z " fill="#1EAFE5" transform="translate(50.8125,25.5)"/>
<path d="M0 0 C0.83789062 -0.01546875 1.67578125 -0.0309375 2.5390625 -0.046875 C8.8038099 -0.00808399 13.48722912 1.57716616 19 4.5 C19 5.82 19 7.14 19 8.5 C15.43048241 7.8880827 12.34366413 6.87175964 9 5.5 C1.26896715 3.20026238 -7.06009975 4.03004988 -14.25 7.625 C-16 8.5 -16 8.5 -19 8.5 C-19 7.18 -19 5.86 -19 4.5 C-12.54840699 1.07940902 -7.27330513 -0.1342764 0 0 Z " fill="#FDCC5B" transform="translate(36,-0.5)"/>
<path d="M0 0 C-0.99 1.485 -0.99 1.485 -2 3 C-2.28662433 7.14776273 -2.28662433 7.14776273 -1 11 C-1.99 11.33 -2.98 11.66 -4 12 C-4 14.64 -4 17.28 -4 20 C-6.8125 20.1875 -6.8125 20.1875 -10 20 C-11.69921875 18.48828125 -11.69921875 18.48828125 -13 17 C-12.40819673 14.72591331 -11.80111282 12.45579908 -11.1875 10.1875 C-10.85105469 8.92292969 -10.51460937 7.65835937 -10.16796875 6.35546875 C-8.08829913 0.38076571 -6.21604322 -0.41440288 0 0 Z " fill="#FCB75E" transform="translate(65,5)"/>
<path d="M0 0 C5.65620329 0.89985052 5.65620329 0.89985052 7.796875 1.5234375 C10.72302413 2.15639884 13.50805013 2.17034432 16.5 2.1875 C17.6240625 2.20167969 18.748125 2.21585937 19.90625 2.23046875 C22.9141168 2.00639787 24.42157037 1.43439666 27 0 C29.25 0.375 29.25 0.375 31 1 C30.67 1.99 30.34 2.98 30 4 C25.00254271 5.91229233 20.34041417 6.31138407 15 6.25 C14.32710937 6.25773437 13.65421875 6.26546875 12.9609375 6.2734375 C8.25052382 6.25525057 4.42515911 5.45200533 0 4 C0 2.68 0 1.36 0 0 Z " fill="#FDCC5B" transform="translate(21,66)"/>
<path d="M0 0 C3.125 0.25 3.125 0.25 5 1.4375 C6.47281139 3.81036279 6.34723194 5.50913944 6.125 8.25 C5.465 8.25 4.805 8.25 4.125 8.25 C4.125 8.91 4.125 9.57 4.125 10.25 C0.875 11.0625 0.875 11.0625 -2.875 11.25 C-5.3125 8.8125 -5.3125 8.8125 -6.875 6.25 C-3.36148649 0.29230317 -3.36148649 0.29230317 0 0 Z " fill="#EBB96B" transform="translate(61.875,47.75)"/>
<path d="M0 0 C1.875 1.75 1.875 1.75 3 4 C3 8 3 8 1.3125 9.75 C-1.43220962 11.23362682 -2.92415328 11.47320719 -6 11 C-7.8125 9.8125 -7.8125 9.8125 -9 8 C-9.42822025 5.14519831 -9.40659584 3.65507108 -7.875 1.1875 C-5.09996189 -0.57002414 -3.21070255 -0.46822746 0 0 Z " fill="#EFB66B" transform="translate(13,48)"/>
<path d="M0 0 C1.875 1.75 1.875 1.75 3 4 C3 8 3 8 1.875 9.75 C-0.77009491 11.5133966 -2.89582621 11.20694492 -6 11 C-6.33 10.01 -6.66 9.02 -7 8 C-7.66 8 -8.32 8 -9 8 C-9.22223194 5.25913944 -9.34781139 3.56036279 -7.875 1.1875 C-5.09996189 -0.57002414 -3.21070255 -0.46822746 0 0 Z " fill="#EDBA68" transform="translate(13,5)"/>
<path d="M0 0 C1.98 0.495 1.98 0.495 4 1 C4.0582253 4.08325358 4.09367134 7.16636505 4.125 10.25 C4.14175781 11.12269531 4.15851563 11.99539062 4.17578125 12.89453125 C4.18222656 13.73886719 4.18867187 14.58320312 4.1953125 15.453125 C4.20578613 16.22817383 4.21625977 17.00322266 4.22705078 17.80175781 C3.97326556 20.25883539 3.22444152 21.87311542 2 24 C1.01 24 0.02 24 -1 24 C-0.7525 22.515 -0.7525 22.515 -0.5 21 C0.39377749 14.05119475 0.07635992 6.99117499 0 0 Z " fill="#FDCD5B" transform="translate(68,26)"/>
<path d="M0 0 C0.99 0 1.98 0 3 0 C2.98839844 1.14597656 2.97679687 2.29195312 2.96484375 3.47265625 C2.95545758 5.00260252 2.94635827 6.53255058 2.9375 8.0625 C2.92912109 8.81466797 2.92074219 9.56683594 2.91210938 10.34179688 C2.89191659 15.00633118 3.22404041 19.39923173 4 24 C2.68 23.67 1.36 23.34 0 23 C-0.81943398 17.99234789 -1.13508122 13.21601392 -1.125 8.125 C-1.12757812 6.80757812 -1.13015625 5.49015625 -1.1328125 4.1328125 C-1 1 -1 1 0 0 Z " fill="#FDCD5A" transform="translate(1,26)"/>
<path d="M0 0 C2.5 1.5 2.5 1.5 5 4 C5.45442324 6.80138565 5.23849927 9.13800875 5 12 C2.69 12 0.38 12 -2 12 C-2.28571429 3.42857143 -2.28571429 3.42857143 0 0 Z " fill="#15AFE9" transform="translate(55,55)"/>
<path d="M0 0 C1.65 0 3.3 0 5 0 C5.45375 1.11375 5.9075 2.2275 6.375 3.375 C7.72465986 6.96199008 7.72465986 6.96199008 10 9 C12.43252661 9.46162427 12.43252661 9.46162427 15.125 9.625 C16.03507812 9.69976562 16.94515625 9.77453125 17.8828125 9.8515625 C18.93082031 9.92503906 18.93082031 9.92503906 20 10 C19.67 10.66 19.34 11.32 19 12 C14.04815227 12.35230537 10.14494491 12.5204295 5.5625 10.4375 C2.38382132 7.41387882 1.40155934 5.12681361 0 1 C0 0.67 0 0.34 0 0 Z " fill="#F15B82" transform="translate(21,33)"/>
<path d="M0 0 C3.875 1.875 3.875 1.875 5 3 C5.14115161 5.67058851 5.04247107 8.32432238 5 11 C2.69 11 0.38 11 -2 11 C-2.95465783 8.83032311 -3.14401212 7.43671207 -2.3984375 5.17578125 C-1.64129615 3.4315257 -0.82390802 1.71372869 0 0 Z " fill="#FB567B" transform="translate(3,56)"/>
<path d="M0 0 C0.99 0 1.98 0 3 0 C5.67927341 4.01891012 5.15601248 6.24161923 5 11 C2.69 11 0.38 11 -2 11 C-2.28571429 3.57142857 -2.28571429 3.57142857 0 0 Z " fill="#B0BD19" transform="translate(3,13)"/>
<path d="M0 0 C0.94875 0.04125 1.8975 0.0825 2.875 0.125 C1.885 1.61 1.885 1.61 0.875 3.125 C0.58837567 7.27276273 0.58837567 7.27276273 1.875 11.125 C-1.85987777 10.6270163 -3.93737635 10.25008244 -7.125 8.125 C-4.70950704 0.18838028 -4.70950704 0.18838028 0 0 Z " fill="#EFBA69" transform="translate(62.125,4.875)"/>
<path d="M0 0 C1.32 0.66 2.64 1.32 4 2 C4 3.65 4 5.3 4 7 C3.34 7 2.68 7 2 7 C2 7.66 2 8.32 2 9 C-0.31 9.33 -2.62 9.66 -5 10 C-4.01 9.34 -3.02 8.68 -2 8 C-1.95834237 6.00043389 -1.95834237 3.99956611 -2 2 C-1.34 1.34 -0.68 0.68 0 0 Z " fill="#EFCE91" transform="translate(64,49)"/>
<path d="M0 0 C1.32 0.66 2.64 1.32 4 2 C3.125 6.75 3.125 6.75 2 9 C0.68 8.67 -0.64 8.34 -2 8 C-2.125 5.125 -2.125 5.125 -2 2 C-1.34 1.34 -0.68 0.68 0 0 Z " fill="#F9D190" transform="translate(64,6)"/>
<path d="M0 0 C0.99 0.33 1.98 0.66 3 1 C3.33 2.98 3.66 4.96 4 7 C2.35 7.66 0.7 8.32 -1 9 C-2 8 -2 8 -2.1875 5.0625 C-2 2 -2 2 0 0 Z " fill="#FAD18F" transform="translate(12,49)"/>
<path d="M0 0 C0.99 0.33 1.98 0.66 3 1 C3.33 2.98 3.66 4.96 4 7 C2.35 7.66 0.7 8.32 -1 9 C-2 8 -2 8 -2.1875 5.0625 C-2 2 -2 2 0 0 Z " fill="#F9D18F" transform="translate(12,6)"/>
</svg>
