<?xml version="1.0" encoding="UTF-8"?>
<svg version="1.1" xmlns="http://www.w3.org/2000/svg" width="72" height="72">
<path d="M0 0 C0.98548828 -0.03738281 1.97097656 -0.07476563 2.98632812 -0.11328125 C11.15112109 -0.21198258 11.15112109 -0.21198258 14.82421875 2.7734375 C18.06470616 6.34065175 18.36590675 8.28114007 18.75 13 C18.83378906 14.00289062 18.91757812 15.00578125 19.00390625 16.0390625 C19.06449219 16.80992188 19.12507813 17.58078125 19.1875 18.375 C19.93515625 18.31699219 20.6828125 18.25898438 21.453125 18.19921875 C29.52937005 17.8292337 29.52937005 17.8292337 32.75 20.5 C36.77802038 28.55604076 37.84135342 37.45208653 35.39453125 46.21484375 C33.73873997 50.12910896 32.79806699 51.96795534 29.1875 54.375 C26.48828125 54.7890625 26.48828125 54.7890625 23.5 55 C22.50613281 55.07476562 21.51226562 55.14953125 20.48828125 55.2265625 C19.72902344 55.27554688 18.96976563 55.32453125 18.1875 55.375 C18.27451172 56.37080078 18.27451172 56.37080078 18.36328125 57.38671875 C18.73419704 64.64607062 18.73419704 64.64607062 15.9375 68.375 C10.53550701 72.30372218 6.88509534 72.68870852 0.3125 72.625 C-0.87279297 72.63660156 -0.87279297 72.63660156 -2.08203125 72.6484375 C-6.67965353 72.63313759 -10.556585 72.31595517 -14.8125 70.375 C-18.91231101 65.08840159 -19.34818325 60.93711984 -18.8125 54.375 C-19.48796875 54.39820313 -20.1634375 54.42140625 -20.859375 54.4453125 C-21.75140625 54.46335938 -22.6434375 54.48140625 -23.5625 54.5 C-24.88507812 54.53480469 -24.88507812 54.53480469 -26.234375 54.5703125 C-29.00631363 54.36031715 -30.52710641 53.94370218 -32.8125 52.375 C-37.54904169 44.96973519 -36.74089339 33.69216214 -35.296875 25.421875 C-35.13703125 24.74640625 -34.9771875 24.0709375 -34.8125 23.375 C-34.1525 23.375 -33.4925 23.375 -32.8125 23.375 C-32.4825 22.385 -32.1525 21.395 -31.8125 20.375 C-28.82871104 18.39924785 -26.08628179 18.0281933 -22.5625 17.75 C-21.67046875 17.67523437 -20.7784375 17.60046875 -19.859375 17.5234375 C-19.18390625 17.47445313 -18.5084375 17.42546875 -17.8125 17.375 C-17.85890625 16.55515625 -17.9053125 15.7353125 -17.953125 14.890625 C-18.00726562 13.27414062 -18.00726562 13.27414062 -18.0625 11.625 C-18.10890625 10.55765625 -18.1553125 9.4903125 -18.203125 8.390625 C-17.8125 5.375 -17.8125 5.375 -15.984375 3.046875 C-11.2391068 -0.60595736 -5.72447103 0.08140812 0 0 Z M-10.8125 6.375 C-11.1425 7.695 -11.4725 9.015 -11.8125 10.375 C-10.4925 10.705 -9.1725 11.035 -7.8125 11.375 C-7.4825 10.055 -7.1525 8.735 -6.8125 7.375 C-8.1325 7.045 -9.4525 6.715 -10.8125 6.375 Z M-4.8125 35.375 C-4.8125 35.705 -4.8125 36.035 -4.8125 36.375 C0.7975 36.375 6.4075 36.375 12.1875 36.375 C12.1875 36.045 12.1875 35.715 12.1875 35.375 C6.5775 35.375 0.9675 35.375 -4.8125 35.375 Z M-16.8125 39.375 C-15.8125 41.375 -15.8125 41.375 -15.8125 41.375 Z M-17.8125 41.375 C-16.8125 43.375 -16.8125 43.375 -16.8125 43.375 Z M8.1875 61.375 C8.1875 62.695 8.1875 64.015 8.1875 65.375 C9.5075 65.375 10.8275 65.375 12.1875 65.375 C12.1875 64.055 12.1875 62.735 12.1875 61.375 C10.8675 61.375 9.5475 61.375 8.1875 61.375 Z " fill="#FEDE57" transform="translate(35.8125,-0.375)"/>
<path d="M0 0 C0.98548828 -0.03738281 1.97097656 -0.07476563 2.98632812 -0.11328125 C11.15112109 -0.21198258 11.15112109 -0.21198258 14.82421875 2.7734375 C18.91729504 7.27920413 18.62991651 11.25356313 19 17.125 C19.07669922 18.01960938 19.15339844 18.91421875 19.23242188 19.8359375 C19.58695316 25.62803897 19.13215398 28.78852846 15.1875 33.375 C12.69402676 35.86847324 11.86774827 35.63463763 8.42578125 35.68359375 C7.47123047 35.70873047 6.51667969 35.73386719 5.53320312 35.75976562 C3.53065777 35.79458129 1.52804823 35.82590183 -0.47460938 35.85351562 C-6.32103784 36.01428261 -10.66009583 36.52265142 -15.8125 39.375 C-18.65023813 43.63160719 -18.44384486 49.37875268 -18.8125 54.375 C-20.39544782 54.42937607 -21.97894256 54.46796271 -23.5625 54.5 C-24.88507812 54.53480469 -24.88507812 54.53480469 -26.234375 54.5703125 C-29.00631363 54.36031715 -30.52710641 53.94370218 -32.8125 52.375 C-37.54904169 44.96973519 -36.74089339 33.69216214 -35.296875 25.421875 C-35.13703125 24.74640625 -34.9771875 24.0709375 -34.8125 23.375 C-34.1525 23.375 -33.4925 23.375 -32.8125 23.375 C-32.4825 22.385 -32.1525 21.395 -31.8125 20.375 C-28.82871104 18.39924785 -26.08628179 18.0281933 -22.5625 17.75 C-21.67046875 17.67523437 -20.7784375 17.60046875 -19.859375 17.5234375 C-19.18390625 17.47445313 -18.5084375 17.42546875 -17.8125 17.375 C-17.85890625 16.55515625 -17.9053125 15.7353125 -17.953125 14.890625 C-18.00726562 13.27414062 -18.00726562 13.27414062 -18.0625 11.625 C-18.10890625 10.55765625 -18.1553125 9.4903125 -18.203125 8.390625 C-17.8125 5.375 -17.8125 5.375 -15.984375 3.046875 C-11.2391068 -0.60595736 -5.72447103 0.08140812 0 0 Z M-10.8125 6.375 C-11.1425 7.695 -11.4725 9.015 -11.8125 10.375 C-10.4925 10.705 -9.1725 11.035 -7.8125 11.375 C-7.4825 10.055 -7.1525 8.735 -6.8125 7.375 C-8.1325 7.045 -9.4525 6.715 -10.8125 6.375 Z " fill="#3D7AAA" transform="translate(35.8125,-0.375)"/>
</svg>
