<?xml version="1.0" encoding="UTF-8"?>
<svg version="1.1" xmlns="http://www.w3.org/2000/svg" width="72" height="72">
<path d="M0 0 C3.4375 1.8125 3.4375 1.8125 6 4 C7.66324401 5.00568242 9.32936253 6.00664799 11 7 C11.99 7.66 12.98 8.32 14 9 C14.44140625 11.3125 14.44140625 11.3125 14.5625 14 C14.61262805 17.97661743 14.61262805 17.97661743 17 21 C17.55408971 26.20844327 17.55408971 26.20844327 15.6875 28.875 C14 30 14 30 11 30 C11.02320313 30.60328125 11.04640625 31.2065625 11.0703125 31.828125 C11.08835938 32.62734375 11.10640625 33.4265625 11.125 34.25 C11.14820313 35.03890625 11.17140625 35.8278125 11.1953125 36.640625 C10.9828378 39.20731941 10.28654105 40.7916067 9 43 C9.928125 43.103125 10.85625 43.20625 11.8125 43.3125 C15 44 15 44 18 47 C18 55.25 18 63.5 18 72 C-0.81 72 -19.62 72 -39 72 C-39 70.35 -39 68.7 -39 67 C-39.66 67 -40.32 67 -41 67 C-40.98839844 66.07316406 -40.97679687 65.14632812 -40.96484375 64.19140625 C-40.95582031 62.99386719 -40.94679688 61.79632813 -40.9375 60.5625 C-40.92589844 59.36753906 -40.91429687 58.17257813 -40.90234375 56.94140625 C-40.66098208 54.11126659 -40.66098208 54.11126659 -42 53 C-42.0989294 50.83519203 -42.129711 48.66706215 -42.125 46.5 C-42.12757812 45.3140625 -42.13015625 44.128125 -42.1328125 42.90625 C-42 40 -42 40 -41 39 C-40.91368126 37.65732587 -40.89293527 36.31025678 -40.90234375 34.96484375 C-40.90556641 34.15595703 -40.90878906 33.34707031 -40.91210938 32.51367188 C-40.92048828 31.66353516 -40.92886719 30.81339844 -40.9375 29.9375 C-40.94426758 28.65649414 -40.94426758 28.65649414 -40.95117188 27.34960938 C-40.96299627 25.23304337 -40.98093231 23.11651315 -41 21 C-39.68 20.67 -38.36 20.34 -37 20 C-36.67 18.68 -36.34 17.36 -36 16 C-34.125 15.375 -34.125 15.375 -32 15 C-30 17 -30 17 -30 20 C-29.01 20 -28.02 20 -27 20 C-27.03480469 19.31292969 -27.06960937 18.62585938 -27.10546875 17.91796875 C-27.14607422 16.56638672 -27.14607422 16.56638672 -27.1875 15.1875 C-27.22230469 14.29417969 -27.25710937 13.40085937 -27.29296875 12.48046875 C-27 10 -27 10 -25.73828125 8.17578125 C-24 7 -24 7 -20 7 C-19.690625 6.1028125 -19.690625 6.1028125 -19.375 5.1875 C-15.24325247 -1.38573471 -6.89107657 -0.8720482 0 0 Z M-27 29 C-27 32.63 -27 36.26 -27 40 C-26.34 40 -25.68 40 -25 40 C-25 40.99 -25 41.98 -25 43 C-23.68 42.67 -22.36 42.34 -21 42 C-21.42164019 40.01739401 -21.86278778 38.03892755 -22.3125 36.0625 C-22.67794922 34.40927734 -22.67794922 34.40927734 -23.05078125 32.72265625 C-23.36402344 31.82417969 -23.67726563 30.92570312 -24 30 C-24.99 29.67 -25.98 29.34 -27 29 Z " fill="#607ED1" transform="translate(48,0)"/>
<path d="M0 0 C4.33692299 2.09368696 6.36341202 5.09334902 8.23046875 9.3359375 C9.09815681 12.080987 9.16005191 14.52448094 8.875 17.375 C10.195 17.705 11.515 18.035 12.875 18.375 C13.5 20.75 13.5 20.75 13.875 23.375 C8.01874995 29.23125005 -1.21978412 28.63733261 -8.9375 28.75 C-9.89720703 28.78738281 -10.85691406 28.82476563 -11.84570312 28.86328125 C-18.31159812 28.94272569 -23.32596283 28.0023155 -28.125 23.375 C-28.625 20.5625 -28.625 20.5625 -28.125 18.375 C-26.475 18.045 -24.825 17.715 -23.125 17.375 C-23.24875 15.8590625 -23.24875 15.8590625 -23.375 14.3125 C-22.99373765 8.30761798 -20.87097854 5.03580886 -16.5625 0.9375 C-11.15614068 -1.51993606 -5.71722942 -1.68153806 0 0 Z " fill="#F4CCCE" transform="translate(49.125,2.625)"/>
<path d="M0 0 C0 7.59 0 15.18 0 23 C-10.89 23 -21.78 23 -33 23 C-33 19.37 -33 15.74 -33 12 C-29.96126396 10.36931195 -26.91925381 8.74532864 -23.875 7.125 C-23.0190625 6.66480469 -22.163125 6.20460938 -21.28125 5.73046875 C-13.63736374 1.67332912 -8.96526324 0 0 0 Z " fill="#D9E5FA" transform="translate(58,48)"/>
<path d="M0 0 C3.4375 1.8125 3.4375 1.8125 6 4 C7.66324401 5.00568242 9.32936253 6.00664799 11 7 C11.99 7.66 12.98 8.32 14 9 C14.44140625 11.3125 14.44140625 11.3125 14.5625 14 C14.61262805 17.97661743 14.61262805 17.97661743 17 21 C17.55408971 26.20844327 17.55408971 26.20844327 15.6875 28.875 C14 30 14 30 11 30 C11.02320313 30.60328125 11.04640625 31.2065625 11.0703125 31.828125 C11.08835938 32.62734375 11.10640625 33.4265625 11.125 34.25 C11.14820313 35.03890625 11.17140625 35.8278125 11.1953125 36.640625 C10.9828378 39.20731941 10.28654105 40.7916067 9 43 C9.928125 43.103125 10.85625 43.20625 11.8125 43.3125 C15 44 15 44 18 47 C18 55.25 18 63.5 18 72 C-0.81 72 -19.62 72 -39 72 C-39 70.35 -39 68.7 -39 67 C-39.66 67 -40.32 67 -41 67 C-40.98839844 66.07316406 -40.97679687 65.14632812 -40.96484375 64.19140625 C-40.95582031 62.99386719 -40.94679688 61.79632813 -40.9375 60.5625 C-40.92589844 59.36753906 -40.91429687 58.17257813 -40.90234375 56.94140625 C-40.66098208 54.11126659 -40.66098208 54.11126659 -42 53 C-42.0989294 50.83519203 -42.129711 48.66706215 -42.125 46.5 C-42.12757812 45.3140625 -42.13015625 44.128125 -42.1328125 42.90625 C-42 40 -42 40 -41 39 C-40.76518307 36.81707226 -40.58636677 34.62796826 -40.4375 32.4375 C-40.35371094 31.23996094 -40.26992188 30.04242187 -40.18359375 28.80859375 C-40.12300781 27.88175781 -40.06242187 26.95492188 -40 26 C-39.67 26 -39.34 26 -39 26 C-38.80609271 28.31197155 -38.62003633 30.6246029 -38.4375 32.9375 C-38.33308594 34.22527344 -38.22867188 35.51304688 -38.12109375 36.83984375 C-38.08113281 37.88269531 -38.04117188 38.92554688 -38 40 C-38.495 40.495 -38.495 40.495 -39 41 C-39.09851171 42.83115883 -39.12972629 44.66619933 -39.125 46.5 C-39.12757812 47.5003125 -39.13015625 48.500625 -39.1328125 49.53125 C-39.27870382 51.94399622 -39.27870382 51.94399622 -38 53 C-37.90113647 54.62252492 -37.87028833 56.24947273 -37.875 57.875 C-37.87242188 58.75929687 -37.86984375 59.64359375 -37.8671875 60.5546875 C-38 63 -38 63 -39 66 C-38.34 66.33 -37.68 66.66 -37 67 C-37.33 68.32 -37.66 69.64 -38 71 C-33.38 71 -28.76 71 -24 71 C-24 66.05 -24 61.1 -24 56 C-23.67 56.99 -23.34 57.98 -23 59 C-22.34 59.33 -21.68 59.66 -21 60 C-21.66 60 -22.32 60 -23 60 C-23 63.63 -23 67.26 -23 71 C-12.11 71 -1.22 71 10 71 C10 63.74 10 56.48 10 49 C10.33 49 10.66 49 11 49 C11 55.93 11 62.86 11 70 C12.65 70 14.3 70 16 70 C15.8612119 66.39552566 15.71276065 62.79151288 15.5625 59.1875 C15.52318359 58.16333984 15.48386719 57.13917969 15.44335938 56.08398438 C15.40146484 55.10107422 15.35957031 54.11816406 15.31640625 53.10546875 C15.26141968 51.74651489 15.26141968 51.74651489 15.20532227 50.36010742 C15.0791795 47.84951218 15.0791795 47.84951218 14 45 C11.36 44.67 8.72 44.34 6 44 C6.495 43.030625 6.99 42.06125 7.5 41.0625 C9.39857367 36.71271619 9.28589988 32.66969796 9 28 C10.65 27.34 12.3 26.68 14 26 C13.67 24.35 13.34 22.7 13 21 C12.01 20.67 11.02 20.34 10 20 C9.33984375 18.07421875 9.33984375 18.07421875 8.9375 15.6875 C8.06875303 10.68186272 7.18924956 7.91091455 3.0625 4.75 C-1.75208968 2.21176444 -6.69972018 2.21654989 -12 3 C-16.99942063 5.32115958 -19.08814921 7.86818998 -21 13 C-21.7136724 16.73771834 -21.7136724 16.73771834 -22 20 C-27.625 22.125 -27.625 22.125 -31 21 C-31.33 20.01 -31.66 19.02 -32 18 C-32.99 18 -33.98 18 -35 18 C-35.33 18.99 -35.66 19.98 -36 21 C-36.99 21.33 -37.98 21.66 -39 22 C-39.66 22.99 -40.32 23.98 -41 25 C-40.67 23.35 -40.34 21.7 -40 20 C-39.01 20 -38.02 20 -37 20 C-36.67 18.68 -36.34 17.36 -36 16 C-34.125 15.375 -34.125 15.375 -32 15 C-30 17 -30 17 -30 20 C-29.01 20 -28.02 20 -27 20 C-27.03480469 19.31292969 -27.06960937 18.62585938 -27.10546875 17.91796875 C-27.14607422 16.56638672 -27.14607422 16.56638672 -27.1875 15.1875 C-27.22230469 14.29417969 -27.25710937 13.40085937 -27.29296875 12.48046875 C-27 10 -27 10 -25.73828125 8.17578125 C-24 7 -24 7 -20 7 C-19.690625 6.1028125 -19.690625 6.1028125 -19.375 5.1875 C-15.24325247 -1.38573471 -6.89107657 -0.8720482 0 0 Z " fill="#5071CD" transform="translate(48,0)"/>
<path d="M0 0 C0.66 0.33 1.32 0.66 2 1 C2.56449529 6.41915479 1.73055991 9.69588153 -1.39453125 14.1953125 C-4.79604434 18.01891115 -8.42376386 19.80887274 -13.52734375 20.1875 C-19.61534027 19.89454378 -22.90398216 18.49562934 -27 14 C-29.94477316 9.48468116 -30.11282181 6.30262508 -30 1 C-29.12674072 1.00523682 -28.25348145 1.01047363 -27.35375977 1.01586914 C-24.12410727 1.03287751 -20.89447755 1.04543369 -17.66479492 1.05493164 C-16.26504772 1.0599708 -14.8653058 1.06680216 -13.46557617 1.07543945 C-11.45754223 1.0875232 -9.44947043 1.09269807 -7.44140625 1.09765625 C-6.23170166 1.10289307 -5.02199707 1.10812988 -3.77563477 1.11352539 C-1.09187983 1.31775285 -1.09187983 1.31775285 0 0 Z " fill="#9EC4FC" transform="translate(56,29)"/>
<path d="M0 0 C0.66 0.33 1.32 0.66 2 1 C2 3.31 2 5.62 2 8 C1.67 8 1.34 8 1 8 C0.67 6.35 0.34 4.7 0 3 C-0.33 5.31 -0.66 7.62 -1 10 C-2.58294782 10.05437607 -4.16644256 10.09296271 -5.75 10.125 C-6.63171875 10.14820313 -7.5134375 10.17140625 -8.421875 10.1953125 C-11.1135858 9.99139502 -12.69904974 9.36551721 -15 8 C-15.33 8.33 -15.66 8.66 -16 9 C-17.85287502 9.07226502 -19.70833878 9.0838122 -21.5625 9.0625 C-22.57441406 9.05347656 -23.58632813 9.04445313 -24.62890625 9.03515625 C-25.41136719 9.02355469 -26.19382812 9.01195312 -27 9 C-27.33 7.02 -27.66 5.04 -28 3 C-28.33 4.65 -28.66 6.3 -29 8 C-29.33 8 -29.66 8 -30 8 C-30 5.69 -30 3.38 -30 1 C-29.12674072 1.00523682 -28.25348145 1.01047363 -27.35375977 1.01586914 C-24.12410727 1.03287751 -20.89447755 1.04543369 -17.66479492 1.05493164 C-16.26504772 1.0599708 -14.8653058 1.06680216 -13.46557617 1.07543945 C-11.45754223 1.0875232 -9.44947043 1.09269807 -7.44140625 1.09765625 C-6.23170166 1.10289307 -5.02199707 1.10812988 -3.77563477 1.11352539 C-1.09187983 1.31775285 -1.09187983 1.31775285 0 0 Z " fill="#6486DA" transform="translate(56,29)"/>
<path d="M0 0 C5.82933653 -0.46634692 8.31593881 0.63969523 13 4 C15.7282504 4.78215588 15.7282504 4.78215588 18 5 C17.67 5.66 17.34 6.32 17 7 C16.34 7 15.68 7 15 7 C14.67 7.99 14.34 8.98 14 10 C12.29296875 11.16796875 12.29296875 11.16796875 10.1875 12.1875 C9.50042969 12.53167969 8.81335937 12.87585937 8.10546875 13.23046875 C6 14 6 14 2 14 C1.67 17.63 1.34 21.26 1 25 C-0.32 25 -1.64 25 -3 25 C-3 19.39 -3 13.78 -3 8 C-2.34 7.67 -1.68 7.34 -1 7 C-0.59270772 4.67843403 -0.25561323 2.3431213 0 0 Z " fill="#E4C3CF" transform="translate(23,45)"/>
<path d="M0 0 C3.4375 1.8125 3.4375 1.8125 6 4 C7.66324401 5.00568242 9.32936253 6.00664799 11 7 C11.99 7.66 12.98 8.32 14 9 C13.67 12.63 13.34 16.26 13 20 C12.01 20 11.02 20 10 20 C9.87882812 19.39671875 9.75765625 18.7934375 9.6328125 18.171875 C9.46523438 17.37265625 9.29765625 16.5734375 9.125 15.75 C8.88136719 14.56664062 8.88136719 14.56664062 8.6328125 13.359375 C7.52553693 9.23101424 6.50971599 7.39042076 3.0625 4.75 C-1.75208968 2.21176444 -6.69972018 2.21654989 -12 3 C-16.99942063 5.32115958 -19.08814921 7.86818998 -21 13 C-21.7136724 16.73771834 -21.7136724 16.73771834 -22 20 C-27.625 22.125 -27.625 22.125 -31 21 C-31.33 20.01 -31.66 19.02 -32 18 C-32.99 18 -33.98 18 -35 18 C-35.33 18.99 -35.66 19.98 -36 21 C-36.99 21.33 -37.98 21.66 -39 22 C-39.66 22.99 -40.32 23.98 -41 25 C-40.67 23.35 -40.34 21.7 -40 20 C-39.01 20 -38.02 20 -37 20 C-36.67 18.68 -36.34 17.36 -36 16 C-34.125 15.375 -34.125 15.375 -32 15 C-30 17 -30 17 -30 20 C-29.01 20 -28.02 20 -27 20 C-27.03480469 19.31292969 -27.06960937 18.62585938 -27.10546875 17.91796875 C-27.14607422 16.56638672 -27.14607422 16.56638672 -27.1875 15.1875 C-27.22230469 14.29417969 -27.25710937 13.40085937 -27.29296875 12.48046875 C-27 10 -27 10 -25.73828125 8.17578125 C-24 7 -24 7 -20 7 C-19.690625 6.1028125 -19.690625 6.1028125 -19.375 5.1875 C-15.24325247 -1.38573471 -6.89107657 -0.8720482 0 0 Z " fill="#3862CC" transform="translate(48,0)"/>
<path d="M0 0 C4.29 0 8.58 0 13 0 C13 3.63 13 7.26 13 11 C8.71 11 4.42 11 0 11 C0 7.37 0 3.74 0 0 Z " fill="#F7CECE" transform="translate(8,41)"/>
<path d="M0 0 C2.97 0 5.94 0 9 0 C9 4.62 9 9.24 9 14 C6.03 14 3.06 14 0 14 C0 9.38 0 4.76 0 0 Z " fill="#D9E6FA" transform="translate(10,25)"/>
<path d="M0 0 C0.99 0.66 1.98 1.32 3 2 C3.34057617 4.24658203 3.34057617 4.24658203 3.29296875 7.0078125 C3.28330078 7.99394531 3.27363281 8.98007812 3.26367188 9.99609375 C3.23853516 11.02863281 3.21339844 12.06117187 3.1875 13.125 C3.17396484 14.16527344 3.16042969 15.20554687 3.14648438 16.27734375 C3.11105228 18.85207627 3.06165221 21.4257833 3 24 C1.35 24 -0.3 24 -2 24 C-2.05787784 20.37506666 -2.0935542 16.75025143 -2.125 13.125 C-2.14175781 12.09246094 -2.15851562 11.05992188 -2.17578125 9.99609375 C-2.18222656 9.00996094 -2.18867187 8.02382813 -2.1953125 7.0078125 C-2.20578613 6.09660645 -2.21625977 5.18540039 -2.22705078 4.24658203 C-2 2 -2 2 0 0 Z " fill="#F4CCCF" transform="translate(61,46)"/>
<path d="M0 0 C0.33 0 0.66 0 1 0 C1.12375 1.11375 1.2475 2.2275 1.375 3.375 C1.6465813 7.03103677 1.6465813 7.03103677 4 9 C4.55408971 14.20844327 4.55408971 14.20844327 2.6875 16.875 C1 18 1 18 -2 18 C-1.97679687 18.60328125 -1.95359375 19.2065625 -1.9296875 19.828125 C-1.91164063 20.62734375 -1.89359375 21.4265625 -1.875 22.25 C-1.85179687 23.03890625 -1.82859375 23.8278125 -1.8046875 24.640625 C-2.0171622 27.20731941 -2.71345895 28.7916067 -4 31 C-3.071875 31.103125 -2.14375 31.20625 -1.1875 31.3125 C2.17872851 32.03854929 3.03527695 32.29346036 5 35 C5.34057617 37.63549805 5.34057617 37.63549805 5.29296875 40.76171875 C5.28330078 41.87998047 5.27363281 42.99824219 5.26367188 44.15039062 C5.23853516 45.31763672 5.21339844 46.48488281 5.1875 47.6875 C5.17396484 48.86634766 5.16042969 50.04519531 5.14648438 51.25976562 C5.11109326 54.17363411 5.06171809 57.08658945 5 60 C4.34 59.67 3.68 59.34 3 59 C3.01571045 58.03175293 3.01571045 58.03175293 3.03173828 57.04394531 C3.07337272 54.11266998 3.09934975 51.18145696 3.125 48.25 C3.14175781 47.23421875 3.15851563 46.2184375 3.17578125 45.171875 C3.18222656 44.1921875 3.18867187 43.2125 3.1953125 42.203125 C3.20578613 41.30239258 3.21625977 40.40166016 3.22705078 39.47363281 C2.98421753 36.82805598 2.43912299 35.22202617 1 33 C-1.67790463 32.16113831 -4.1737941 32.18233586 -7 32 C-6.2575 30.5459375 -6.2575 30.5459375 -5.5 29.0625 C-3.60142633 24.71271619 -3.71410012 20.66969796 -4 16 C-2.35 15.34 -0.7 14.68 1 14 C0.835 13.360625 0.67 12.72125 0.5 12.0625 C-0.15932515 8.02413348 -0.08003779 4.08192742 0 0 Z " fill="#3762CC" transform="translate(61,12)"/>
<path d="M0 0 C0.33 0 0.66 0 1 0 C1 1.98 1 3.96 1 6 C2.32 6.33 3.64 6.66 5 7 C5.625 9.375 5.625 9.375 6 12 C2.63430605 15.36569395 -1.40086993 16.2115777 -6 17 C-6.33 16.01 -6.66 15.02 -7 14 C-6.34 14 -5.68 14 -5 14 C-4.896875 13.071875 -4.79375 12.14375 -4.6875 11.1875 C-3.95009417 7.76861841 -3.38614007 7.28671757 -1 5 C-0.27802838 2.39388923 -0.27802838 2.39388923 0 0 Z " fill="#F2CBCE" transform="translate(57,14)"/>
<path d="M0 0 C3.96 0 7.92 0 12 0 C11.67 2.31 11.34 4.62 11 7 C12.32 7.33 13.64 7.66 15 8 C10.38 8 5.76 8 1 8 C0.67 5.36 0.34 2.72 0 0 Z " fill="#988DAF" transform="translate(9,63)"/>
<path d="M0 0 C1 1 2 2 3 3 C4.97620986 4.04622875 6.9737129 5.05439935 9 6 C8.67 9.63 8.34 13.26 8 17 C7.01 17 6.02 17 5 17 C4.87882812 16.39671875 4.75765625 15.7934375 4.6328125 15.171875 C4.46523438 14.37265625 4.29765625 13.5734375 4.125 12.75 C3.88136719 11.56664062 3.88136719 11.56664062 3.6328125 10.359375 C2.50380033 6.14997162 1.55158537 4.39398955 -2.0625 1.8125 C-6.20813476 -0.41774655 -10.35586694 -0.78938172 -15 -1 C-15 -1.33 -15 -1.66 -15 -2 C-9.09060874 -3.08995439 -5.23151135 -3.48767423 0 0 Z " fill="#5576D1" transform="translate(53,3)"/>
<path d="M0 0 C0.33 0 0.66 0 1 0 C1.19390729 2.31197155 1.37996367 4.6246029 1.5625 6.9375 C1.66691406 8.22527344 1.77132813 9.51304688 1.87890625 10.83984375 C1.91886719 11.88269531 1.95882813 12.92554688 2 14 C1.67 14.33 1.34 14.66 1 15 C0.90148829 16.83115883 0.87027371 18.66619933 0.875 20.5 C0.87242188 21.5003125 0.86984375 22.500625 0.8671875 23.53125 C0.72129618 25.94399622 0.72129618 25.94399622 2 27 C2.09886353 28.62252492 2.12971167 30.24947273 2.125 31.875 C2.12757812 32.75929687 2.13015625 33.64359375 2.1328125 34.5546875 C2 37 2 37 1 40 C1.66 40.33 2.32 40.66 3 41 C1.68 41 0.36 41 -1 41 C-0.98839844 40.07316406 -0.97679687 39.14632812 -0.96484375 38.19140625 C-0.95582031 36.99386719 -0.94679688 35.79632813 -0.9375 34.5625 C-0.92589844 33.36753906 -0.91429687 32.17257813 -0.90234375 30.94140625 C-0.66098208 28.11126659 -0.66098208 28.11126659 -2 27 C-2.0989294 24.83519203 -2.129711 22.66706215 -2.125 20.5 C-2.12757813 19.3140625 -2.13015625 18.128125 -2.1328125 16.90625 C-2 14 -2 14 -1 13 C-0.76518307 10.81707226 -0.58636677 8.62796826 -0.4375 6.4375 C-0.35371094 5.23996094 -0.26992187 4.04242188 -0.18359375 2.80859375 C-0.12300781 1.88175781 -0.06242188 0.95492188 0 0 Z " fill="#4C6ECD" transform="translate(8,26)"/>
<path d="M0 0 C2.97 0 5.94 0 9 0 C9.33 1.32 9.66 2.64 10 4 C9.01 4.33 8.02 4.66 7 5 C6.67 6.65 6.34 8.3 6 10 C4.68 9.67 3.36 9.34 2 9 C2 7.68 2 6.36 2 5 C1.01 4.67 0.02 4.34 -1 4 C-0.67 2.68 -0.34 1.36 0 0 Z " fill="#778BD3" transform="translate(46,17)"/>
<path d="M0 0 C2.97 0 5.94 0 9 0 C9 2.64 9 5.28 9 8 C6.03 8 3.06 8 0 8 C0 5.36 0 2.72 0 0 Z " fill="#DEE9FB" transform="translate(10,54)"/>
<path d="M0 0 C2.97 0 5.94 0 9 0 C9.33 1.32 9.66 2.64 10 4 C8.68 4.33 7.36 4.66 6 5 C6 6.65 6 8.3 6 10 C4.68 10 3.36 10 2 10 C2 8.02 2 6.04 2 4 C1.01 4 0.02 4 -1 4 C-0.67 2.68 -0.34 1.36 0 0 Z " fill="#7389D3" transform="translate(29,17)"/>
<path d="M0 0 C1.32 0.33 2.64 0.66 4 1 C4 1.99 4 2.98 4 4 C4.99 4 5.98 4 7 4 C7 4.99 7 5.98 7 7 C3.37 7 -0.26 7 -4 7 C-4 6.01 -4 5.02 -4 4 C-3.01 4 -2.02 4 -1 4 C-0.67 2.68 -0.34 1.36 0 0 Z " fill="#A48D9C" transform="translate(13,17)"/>
<path d="M0 0 C1.45792884 -0.05399736 2.91642712 -0.09279177 4.375 -0.125 C5.18710937 -0.14820312 5.99921875 -0.17140625 6.8359375 -0.1953125 C9 0 9 0 11 2 C11 2.99 11 3.98 11 5 C9.54176788 5.0270043 8.08339325 5.04639787 6.625 5.0625 C5.81289063 5.07410156 5.00078125 5.08570313 4.1640625 5.09765625 C2 5 2 5 0 4 C0 2.68 0 1.36 0 0 Z " fill="#A1C6FD" transform="translate(43,32)"/>
<path d="M0 0 C1.23556641 0.01740234 1.23556641 0.01740234 2.49609375 0.03515625 C3.32238281 0.04417969 4.14867187 0.05320312 5 0.0625 C5.63808594 0.07410156 6.27617188 0.08570312 6.93359375 0.09765625 C6.05859375 3.97265625 6.05859375 3.97265625 4.93359375 5.09765625 C3.41431337 5.16945589 1.89191893 5.18157632 0.37109375 5.16015625 C-0.45519531 5.15113281 -1.28148437 5.14210938 -2.1328125 5.1328125 C-2.77089844 5.12121094 -3.40898437 5.10960937 -4.06640625 5.09765625 C-2.94676868 0.13926128 -2.94676868 0.13926128 0 0 Z " fill="#A2C8FE" transform="translate(34.06640625,31.90234375)"/>
<path d="M0 0 C-1.5 2 -1.5 2 -4 4 C-7.9375 4.1875 -7.9375 4.1875 -10.02734375 4.07421875 C-12.46256796 3.98259645 -14.64367546 4.41091886 -17 5 C-17 4.34 -17 3.68 -17 3 C-11.04604246 -0.78003299 -6.89092794 -1.46751243 0 0 Z " fill="#8497C2" transform="translate(62,45)"/>
<path d="M0 0 C0.33 0 0.66 0 1 0 C1.12375 1.11375 1.2475 2.2275 1.375 3.375 C1.6465813 7.03103677 1.6465813 7.03103677 4 9 C4.333728 12.13704316 4.52849028 14.16554166 2.8125 16.875 C0.43963721 18.34781139 -1.25913944 18.22223194 -4 18 C-4 17.34 -4 16.68 -4 16 C-2.35 15.34 -0.7 14.68 1 14 C0.835 13.360625 0.67 12.72125 0.5 12.0625 C-0.15932515 8.02413348 -0.08003779 4.08192742 0 0 Z " fill="#4C6ECC" transform="translate(61,12)"/>
<path d="M0 0 C1.98 0.495 1.98 0.495 4 1 C3.34 4.3 2.68 7.6 2 11 C1.01 11 0.02 11 -1 11 C-1.02688151 9.35425434 -1.04634123 7.70838587 -1.0625 6.0625 C-1.07410156 5.14597656 -1.08570312 4.22945312 -1.09765625 3.28515625 C-1 1 -1 1 0 0 Z " fill="#7699E3" transform="translate(24,9)"/>
<path d="M0 0 C0.33 0 0.66 0 1 0 C1.22127098 2.29045368 1.4266504 4.58244764 1.625 6.875 C1.74101562 8.15117188 1.85703125 9.42734375 1.9765625 10.7421875 C1.98429688 11.81726563 1.99203125 12.89234375 2 14 C1.34 14.66 0.68 15.32 0 16 C-0.46162427 18.43252661 -0.46162427 18.43252661 -0.625 21.125 C-0.73714844 22.49011719 -0.73714844 22.49011719 -0.8515625 23.8828125 C-0.90054687 24.58148438 -0.94953125 25.28015625 -1 26 C-1.33 26 -1.66 26 -2 26 C-2.02686553 24.02090602 -2.04633375 22.04171029 -2.0625 20.0625 C-2.07410156 18.96035156 -2.08570313 17.85820313 -2.09765625 16.72265625 C-2 14 -2 14 -1 13 C-0.76518307 10.81707226 -0.58636677 8.62796826 -0.4375 6.4375 C-0.35371094 5.23996094 -0.26992187 4.04242188 -0.18359375 2.80859375 C-0.12300781 1.88175781 -0.06242188 0.95492188 0 0 Z " fill="#335FCC" transform="translate(8,26)"/>
<path d="M0 0 C4.95 0.33 9.9 0.66 15 1 C15 1.33 15 1.66 15 2 C14.07767578 2.09087891 14.07767578 2.09087891 13.13671875 2.18359375 C12.32847656 2.26738281 11.52023438 2.35117187 10.6875 2.4375 C9.88699219 2.51871094 9.08648437 2.59992187 8.26171875 2.68359375 C5.83912821 2.95265693 5.83912821 2.95265693 3 4 C2.67 3.34 2.34 2.68 2 2 C1.67 3.65 1.34 5.3 1 7 C0.67 7 0.34 7 0 7 C0 4.69 0 2.38 0 0 Z " fill="#6C91E2" transform="translate(26,30)"/>
<path d="M0 0 C1.98 0.99 3.96 1.98 6 3 C5.67 6.3 5.34 9.6 5 13 C2.70986347 9.5647952 2.82157027 8.014669 3 4 C2.34 4 1.68 4 1 4 C0.67 2.68 0.34 1.36 0 0 Z " fill="#4268CC" transform="translate(21,26)"/>
<path d="M0 0 C0.99 0 1.98 0 3 0 C3 2.97 3 5.94 3 9 C2.67 7.68 2.34 6.36 2 5 C1.34 5 0.68 5 0 5 C-0.5625 3.0625 -0.5625 3.0625 -1 1 C-0.67 0.67 -0.34 0.34 0 0 Z " fill="#83A6EB" transform="translate(57,9)"/>
<path d="M0 0 C2.97 0 5.94 0 9 0 C9 0.33 9 0.66 9 1 C7.35 1.33 5.7 1.66 4 2 C3.67 3.65 3.34 5.3 3 7 C2.87625 6.360625 2.7525 5.72125 2.625 5.0625 C2.315625 4.0415625 2.315625 4.0415625 2 3 C1.34 2.67 0.68 2.34 0 2 C0 1.34 0 0.68 0 0 Z " fill="#8CA7E6" transform="translate(46,19)"/>
<path d="M0 0 C0.33 0.99 0.66 1.98 1 3 C-2.81489674 4.46726798 -5.29011622 3.43336419 -9 2 C-9 1.67 -9 1.34 -9 1 C-4.545 0.505 -4.545 0.505 0 0 Z " fill="#85A3E7" transform="translate(38,18)"/>
<path d="M0 0 C0.99 0 1.98 0 3 0 C3 1.98 3 3.96 3 6 C2.01 6 1.02 6 0 6 C0 4.02 0 2.04 0 0 Z " fill="#3963CC" transform="translate(49,21)"/>
<path d="M0 0 C0.99 0 1.98 0 3 0 C3 1.98 3 3.96 3 6 C2.01 6 1.02 6 0 6 C0 4.02 0 2.04 0 0 Z " fill="#3A64CC" transform="translate(32,21)"/>
<path d="M0 0 C0.33 0 0.66 0 1 0 C1.12375 1.11375 1.2475 2.2275 1.375 3.375 C1.6465813 7.03103677 1.6465813 7.03103677 4 9 C3.625 11.125 3.625 11.125 3 13 C3 12.01 3 11.02 3 10 C2.01 9.67 1.02 9.34 0 9 C0 6.03 0 3.06 0 0 Z " fill="#3E66CC" transform="translate(61,12)"/>
</svg>
